<svg width="170" height="46" viewBox="0 0 170 46" fill="none" xmlns="http://www.w3.org/2000/svg">
<path fill-rule="evenodd" clip-rule="evenodd" d="M67.7966 34.0741H72.0339V8.51855H67.7966V34.0741Z" fill="white"/>
<path fill-rule="evenodd" clip-rule="evenodd" d="M78.3051 11.5258H82.5424V7.49707H78.3051V11.5258ZM78.3051 34.0748H82.5424V14.848H78.3051V34.0748Z" fill="white"/>
<path fill-rule="evenodd" clip-rule="evenodd" d="M87.6271 34.0745V15.0027H92.0348V17.1763C93.6966 15.7739 95.2505 14.6523 97.129 14.6523C99.9108 14.6523 101.356 16.0199 101.356 19.5603V34.0745H96.8044V20.0511C96.8044 18.7891 96.3704 17.9479 95.1421 17.9479C94.2026 17.9479 93.1548 18.8243 92.1794 19.6655V34.0745H87.6271Z" fill="white"/>
<path fill-rule="evenodd" clip-rule="evenodd" d="M106.611 11.5258H110.847V7.49707H106.611V11.5258ZM106.61 34.0748H110.847V14.848H106.61V34.0748Z" fill="white"/>
<path fill-rule="evenodd" clip-rule="evenodd" d="M114.746 17.0755C114.746 10.7817 118.205 8.51855 123.136 8.51855C128.066 8.51855 131.525 10.7817 131.525 17.0755V26.1986C131.525 32.4925 128.066 34.7556 123.136 34.7556C118.205 34.7556 114.746 32.4925 114.746 26.1986V17.0755ZM119.824 26.8351C119.824 29.6636 121.112 30.4418 123.136 30.4418C125.159 30.4418 126.447 29.6636 126.447 26.8351V16.4391C126.447 13.6106 125.159 12.832 123.136 12.832C121.112 12.832 119.824 13.6106 119.824 16.4391V26.8351Z" fill="white"/>
<path fill-rule="evenodd" clip-rule="evenodd" d="M139.626 15.004V17.3255H139.696C140.46 16.1298 142.408 14.6523 144.355 14.6523C147.762 14.6523 149.153 17.3255 149.153 22.2491V26.8917C149.153 31.8153 147.762 34.4885 144.355 34.4885C143.172 34.4885 142.061 33.926 139.974 32.3782V40.8893H135.593V15.004H139.626ZM139.974 29.8108C140.843 30.7602 141.643 31.1826 142.617 31.1826C143.799 31.1826 144.772 30.4084 144.772 26.6102V22.5306C144.772 18.7323 143.799 17.9582 142.617 17.9582C141.643 17.9582 140.843 18.3806 139.974 19.33V29.8108Z" fill="white"/>
<path fill-rule="evenodd" clip-rule="evenodd" d="M160.952 20.4888C160.355 18.7825 159.231 17.9634 157.896 17.9634C156.877 17.9634 156.104 18.68 156.104 19.6357C156.104 22.5028 164.746 22.5713 164.746 28.1012C164.746 31.7874 162.076 33.7333 158.388 33.7333C155.718 33.7333 153.33 33.0848 151.186 28.4425L155.156 27.3846C155.542 29.125 156.632 30.2513 158.388 30.2513C159.722 30.2513 160.53 29.6369 160.53 28.6131C160.53 25.0631 151.889 25.9162 151.889 19.6701C151.889 16.1545 154.805 14.4814 157.931 14.4814C161.233 14.4814 163.516 16.3252 164.605 19.1238L160.952 20.4888Z" fill="white"/>
<path fill-rule="evenodd" clip-rule="evenodd" d="M5.7362 18.4735C5.92068 18.1272 5.91778 18.1383 6.01168 17.9754C6.62676 16.9088 7.32747 15.9834 8.07285 15.2533C8.90592 14.3442 10.7367 12.6895 13.4891 12.0281C13.9213 11.8718 15.2044 11.4969 17.4281 11.5669V11.5804C21.2907 11.7695 24.1663 13.6153 25.6695 16.0939C26.7619 17.8956 26.2515 20.4614 24.3694 20.9783C23.8536 21.1199 23.3482 21.1399 22.8911 21.029C22.4928 20.986 22.1536 20.7986 21.8665 20.6472C21.8338 20.6378 21.8012 20.6287 21.7701 20.621C21.7606 20.6062 21.7503 20.5919 21.7408 20.5776C20.5466 19.8613 20.3112 18.4235 20.3112 18.4235L20.3319 18.4219C19.68 16.265 20.3195 14.6884 17.9886 13.7111C15.7699 12.7812 13.2698 13.9088 12.0802 14.7834C8.0501 17.7478 7.54711 26.8187 10.426 31.5807C12.0628 34.2885 15.5357 37.7592 20.5884 36.1077C21.0545 35.9555 21.5583 35.7451 22.0423 35.504C22.6094 35.141 23.7097 34.2922 25.0921 32.5188C25.8321 31.3384 26.891 32.3293 26.6147 33.0107C25.9922 34.5467 25.0896 36.0852 24.0671 37.2725C23.1686 38.3162 22.0928 39.2678 20.8849 40.0098C20.554 40.2124 20.6624 40.6602 21.0674 40.6851C21.428 40.7072 21.7912 40.7187 22.1573 40.7187C31.918 40.7187 39.8305 32.7475 39.8305 22.915C39.8305 13.082 31.918 5.11133 22.1573 5.11133C14.1285 5.11133 7.35063 10.5048 5.19846 17.8919C5.16703 17.9995 5.251 17.5907 5.10705 18.216C4.96352 18.8418 5.55171 18.8193 5.7362 18.4735Z" fill="white"/>
<path fill-rule="evenodd" clip-rule="evenodd" d="M51.858 27.2437C51.858 30.1091 53.1456 30.8971 55.1696 30.8971C57.1936 30.8971 58.4812 30.1091 58.4812 27.2437V25.5245H63.5594V26.599C63.5594 32.9745 60.1004 35.2672 55.1696 35.2672C50.2392 35.2672 46.7798 32.9745 46.7798 26.599V17.3577C46.7798 10.9818 50.2392 8.68945 55.1696 8.68945C60.1004 8.68945 63.5594 10.9818 63.5594 17.3577V17.4293H58.4812V16.713C58.4812 13.8472 57.1936 13.0592 55.1696 13.0592C53.1456 13.0592 51.858 13.8472 51.858 16.713V27.2437Z" fill="white"/>
<path d="M164.314 6.08381L163.596 8.25586H163.237L162.518 6.08963V8.25586H161.875V5.11133H162.669L163.416 7.32998L164.187 5.11133H164.957V8.25586H164.314V6.08381ZM161.447 5.66454H160.647V8.24422H159.969V5.66454H159.153V5.11133H161.447V5.66454Z" fill="white"/>
</svg>
