<svg width="101" height="100" viewBox="0 0 101 100" fill="none" xmlns="http://www.w3.org/2000/svg">
<path fill-rule="evenodd" clip-rule="evenodd" d="M94.944 50.0015C94.944 71.6419 79.7015 89.715 59.3889 94.0252C64.5544 88.8721 68.7827 82.8414 71.8684 76.2019C74.3212 70.9241 76.014 65.3433 76.9102 59.6253C83.6445 57.1338 89.7546 53.7288 94.942 49.5666C94.9433 49.7114 94.944 49.8563 94.944 50.0015ZM94.623 44.5928C92.3294 25.4026 77.9853 9.92518 59.3926 5.97848C64.5564 11.1307 68.7834 17.1601 71.8684 23.7981C75.6834 32.0071 77.6599 40.949 77.6599 50C77.6599 51.7146 77.589 53.4252 77.448 55.1277C84.0163 52.466 89.8429 48.8857 94.623 44.5928ZM73.2773 56.6605C73.5316 54.4545 73.6599 52.2308 73.6599 50C73.6599 41.5315 71.8106 33.1648 68.241 25.4839C64.6714 17.803 59.4674 10.9928 52.992 5.5285C52.8327 5.39403 52.6996 5.23999 52.5934 5.07287C51.749 5.02548 50.8985 5.00146 50.0423 5.00146C29.6439 5.00146 12.4234 18.6339 6.9555 37.3053C6.87563 37.5773 6.72324 38.1246 6.72324 38.1246C6.35857 39.7063 7.85299 39.6494 8.3217 38.7753C8.70867 38.0527 8.77114 37.9457 8.91541 37.6987L8.91563 37.6983C8.94605 37.6462 8.98011 37.5879 9.02161 37.5163C10.5843 34.8204 12.3646 32.4815 14.2584 30.6359C16.3749 28.3384 21.0263 24.1559 28.0191 22.4842C29.1174 22.0891 32.3773 21.1415 38.0271 21.3184V21.3525C47.8406 21.8304 55.1466 26.4959 58.9657 32.7608C61.7412 37.3146 60.4443 43.7997 55.6626 45.1063C54.3521 45.4642 53.0679 45.5149 51.9066 45.2346C50.941 45.1309 50.1122 44.6949 49.4047 44.3226L49.3035 44.2694C49.2205 44.2456 49.1374 44.2228 49.0586 44.2032C49.0448 44.1819 49.0302 44.1609 49.0158 44.14C49.005 44.1245 48.9943 44.109 48.984 44.0935C45.95 42.2832 45.352 38.649 45.352 38.649L45.4046 38.6449C44.9354 37.1005 44.7295 35.6738 44.5407 34.3659C44.0632 31.057 43.6954 28.5085 39.4511 26.738C33.8139 24.3877 27.4622 27.2377 24.4397 29.4484C18.7121 33.6397 15.7885 42.6606 15.6045 51.9032C18.7754 53.6593 22.1892 55.1749 25.7992 56.4195C33.5443 59.0897 41.9838 60.4405 50.5247 60.3679C58.3674 60.3012 66.1041 59.036 73.2773 56.6605ZM15.7388 56.5014C16.1886 62.2149 17.6931 67.7184 20.2371 71.9046C24.3956 78.7487 33.2191 87.5211 46.0561 83.347C47.2405 82.9622 48.5205 82.4304 49.7501 81.8211C51.1909 80.9035 53.9864 78.758 57.4986 74.2756C59.3787 71.2922 62.069 73.7966 61.367 75.5191C59.7854 79.4015 57.4923 83.2901 54.8944 86.2911C52.6118 88.9291 49.8783 91.3342 46.8096 93.2097C45.9689 93.7218 46.2442 94.8535 47.2731 94.9166C48.1895 94.9725 49.1122 95.0015 50.0423 95.0015C50.8978 95.0015 51.7477 94.9775 52.5914 94.9302C52.698 94.7619 52.8317 94.6068 52.992 94.4715C59.4674 89.0072 64.6714 82.197 68.241 74.5161C70.2399 70.2149 71.6993 65.6987 72.5967 61.0701C65.5718 63.1846 58.1042 64.3036 50.5587 64.3677C41.5808 64.4441 32.6875 63.0254 24.4955 60.2011C21.4461 59.1498 18.5182 57.912 15.7388 56.5014Z" fill="url(#paint0_radial_1020_269)" style="mix-blend-mode:darken"/>
<defs>
<radialGradient id="paint0_radial_1020_269" cx="0" cy="0" r="1" gradientUnits="userSpaceOnUse" gradientTransform="translate(68.6761 95.0015) rotate(-109.692) scale(92.8718 91.0944)">
<stop offset="0.442708" stop-color="#042D43"/>
<stop offset="0.932292" stop-color="#03A9F4" stop-opacity="0.74026"/>
</radialGradient>
</defs>
</svg>
