<svg width="509" height="508" viewBox="0 0 509 508" fill="none" xmlns="http://www.w3.org/2000/svg">
<g filter="url(#filter0_d_678_392)">
<g filter="url(#filter1_d_678_392)">
<path d="M220.787 339.454V350.829H218.826V339.454H220.787ZM224.904 344.181V350.829H223.021V342.376H224.795L224.904 344.181ZM224.568 346.29L223.959 346.282C223.964 345.683 224.048 345.134 224.209 344.634C224.376 344.134 224.605 343.704 224.896 343.345C225.193 342.985 225.548 342.709 225.959 342.517C226.37 342.319 226.829 342.22 227.334 342.22C227.74 342.22 228.107 342.277 228.436 342.392C228.769 342.501 229.053 342.681 229.287 342.931C229.527 343.181 229.709 343.506 229.834 343.907C229.959 344.303 230.021 344.79 230.021 345.368V350.829H228.131V345.36C228.131 344.954 228.071 344.634 227.951 344.399C227.837 344.16 227.667 343.991 227.443 343.892C227.225 343.787 226.951 343.735 226.623 343.735C226.3 343.735 226.011 343.803 225.756 343.938C225.501 344.074 225.285 344.259 225.107 344.493C224.936 344.728 224.803 344.998 224.709 345.306C224.615 345.613 224.568 345.941 224.568 346.29ZM234.693 349.337L236.764 342.376H238.717L235.779 350.829H234.561L234.693 349.337ZM233.107 342.376L235.217 349.368L235.318 350.829H234.1L231.146 342.376H233.107ZM243.498 350.985C242.873 350.985 242.308 350.884 241.803 350.681C241.303 350.472 240.876 350.183 240.521 349.813C240.173 349.444 239.904 349.009 239.717 348.509C239.529 348.009 239.436 347.47 239.436 346.892V346.579C239.436 345.918 239.532 345.319 239.725 344.782C239.917 344.246 240.186 343.787 240.529 343.407C240.873 343.022 241.279 342.728 241.748 342.524C242.217 342.321 242.725 342.22 243.271 342.22C243.876 342.22 244.404 342.321 244.857 342.524C245.311 342.728 245.686 343.014 245.982 343.384C246.285 343.748 246.508 344.183 246.654 344.688C246.805 345.194 246.881 345.751 246.881 346.36V347.165H240.35V345.813H245.021V345.665C245.011 345.326 244.943 345.009 244.818 344.712C244.699 344.415 244.514 344.175 244.264 343.993C244.014 343.811 243.68 343.72 243.264 343.72C242.951 343.72 242.673 343.787 242.428 343.923C242.188 344.053 241.988 344.243 241.826 344.493C241.665 344.743 241.54 345.045 241.451 345.399C241.368 345.748 241.326 346.142 241.326 346.579V346.892C241.326 347.261 241.376 347.605 241.475 347.923C241.579 348.235 241.73 348.509 241.928 348.743C242.126 348.978 242.365 349.162 242.646 349.298C242.928 349.428 243.248 349.493 243.607 349.493C244.061 349.493 244.464 349.402 244.818 349.22C245.173 349.037 245.48 348.78 245.74 348.446L246.732 349.407C246.55 349.673 246.313 349.928 246.021 350.173C245.73 350.412 245.373 350.608 244.951 350.759C244.535 350.91 244.05 350.985 243.498 350.985ZM253.092 348.54C253.092 348.353 253.045 348.183 252.951 348.032C252.857 347.876 252.678 347.735 252.412 347.61C252.152 347.485 251.766 347.371 251.256 347.267C250.808 347.168 250.396 347.05 250.021 346.915C249.652 346.774 249.334 346.605 249.068 346.407C248.803 346.209 248.597 345.975 248.451 345.704C248.305 345.433 248.232 345.121 248.232 344.767C248.232 344.423 248.308 344.097 248.459 343.79C248.61 343.483 248.826 343.212 249.107 342.978C249.389 342.743 249.73 342.558 250.131 342.423C250.537 342.287 250.99 342.22 251.49 342.22C252.199 342.22 252.805 342.34 253.311 342.579C253.821 342.813 254.212 343.134 254.482 343.54C254.753 343.941 254.889 344.394 254.889 344.899H253.006C253.006 344.675 252.949 344.467 252.834 344.274C252.725 344.076 252.558 343.918 252.334 343.798C252.11 343.673 251.829 343.61 251.49 343.61C251.167 343.61 250.899 343.662 250.686 343.767C250.477 343.866 250.321 343.996 250.217 344.157C250.118 344.319 250.068 344.496 250.068 344.688C250.068 344.829 250.094 344.957 250.146 345.071C250.204 345.181 250.298 345.282 250.428 345.376C250.558 345.465 250.735 345.548 250.959 345.626C251.188 345.704 251.475 345.78 251.818 345.853C252.464 345.988 253.019 346.162 253.482 346.376C253.951 346.584 254.311 346.855 254.561 347.188C254.811 347.517 254.936 347.933 254.936 348.438C254.936 348.813 254.855 349.157 254.693 349.47C254.537 349.777 254.308 350.045 254.006 350.274C253.704 350.498 253.342 350.673 252.92 350.798C252.503 350.923 252.035 350.985 251.514 350.985C250.748 350.985 250.1 350.85 249.568 350.579C249.037 350.303 248.633 349.951 248.357 349.524C248.087 349.092 247.951 348.644 247.951 348.181H249.771C249.792 348.53 249.889 348.808 250.061 349.017C250.238 349.22 250.456 349.368 250.717 349.462C250.982 349.55 251.256 349.595 251.537 349.595C251.876 349.595 252.16 349.55 252.389 349.462C252.618 349.368 252.792 349.243 252.912 349.087C253.032 348.925 253.092 348.743 253.092 348.54ZM260.459 342.376V343.751H255.693V342.376H260.459ZM257.068 340.306H258.951V348.493C258.951 348.754 258.988 348.954 259.061 349.095C259.139 349.23 259.245 349.321 259.381 349.368C259.516 349.415 259.675 349.438 259.857 349.438C259.988 349.438 260.113 349.431 260.232 349.415C260.352 349.399 260.449 349.384 260.521 349.368L260.529 350.806C260.373 350.853 260.191 350.894 259.982 350.931C259.779 350.967 259.545 350.985 259.279 350.985C258.847 350.985 258.464 350.91 258.131 350.759C257.798 350.603 257.537 350.35 257.35 350.001C257.162 349.652 257.068 349.188 257.068 348.61V340.306ZM263.928 342.376V350.829H262.037V342.376H263.928ZM261.912 340.157C261.912 339.871 262.006 339.634 262.193 339.446C262.386 339.254 262.652 339.157 262.99 339.157C263.324 339.157 263.587 339.254 263.779 339.446C263.972 339.634 264.068 339.871 264.068 340.157C264.068 340.438 263.972 340.673 263.779 340.86C263.587 341.048 263.324 341.142 262.99 341.142C262.652 341.142 262.386 341.048 262.193 340.86C262.006 340.673 261.912 340.438 261.912 340.157ZM271.404 342.376H273.115V350.595C273.115 351.355 272.954 352.001 272.631 352.532C272.308 353.063 271.857 353.467 271.279 353.743C270.701 354.024 270.032 354.165 269.271 354.165C268.949 354.165 268.589 354.118 268.193 354.024C267.803 353.931 267.423 353.78 267.053 353.571C266.688 353.368 266.383 353.1 266.139 352.767L267.021 351.657C267.324 352.017 267.657 352.28 268.021 352.446C268.386 352.613 268.769 352.696 269.17 352.696C269.602 352.696 269.969 352.616 270.271 352.454C270.579 352.298 270.816 352.066 270.982 351.759C271.149 351.451 271.232 351.076 271.232 350.634V344.29L271.404 342.376ZM265.662 346.696V346.532C265.662 345.892 265.74 345.308 265.896 344.782C266.053 344.251 266.277 343.795 266.568 343.415C266.86 343.03 267.214 342.735 267.631 342.532C268.048 342.324 268.519 342.22 269.045 342.22C269.592 342.22 270.058 342.319 270.443 342.517C270.834 342.715 271.16 342.998 271.42 343.368C271.68 343.733 271.883 344.17 272.029 344.681C272.18 345.186 272.292 345.748 272.365 346.368V346.892C272.298 347.496 272.183 348.048 272.021 348.548C271.86 349.048 271.646 349.48 271.381 349.845C271.115 350.209 270.787 350.491 270.396 350.688C270.011 350.886 269.555 350.985 269.029 350.985C268.514 350.985 268.048 350.879 267.631 350.665C267.219 350.451 266.865 350.152 266.568 349.767C266.277 349.381 266.053 348.928 265.896 348.407C265.74 347.881 265.662 347.311 265.662 346.696ZM267.545 346.532V346.696C267.545 347.082 267.581 347.441 267.654 347.774C267.732 348.108 267.85 348.402 268.006 348.657C268.167 348.907 268.37 349.105 268.615 349.251C268.865 349.392 269.16 349.462 269.498 349.462C269.941 349.462 270.303 349.368 270.584 349.181C270.87 348.993 271.089 348.741 271.24 348.423C271.396 348.1 271.506 347.741 271.568 347.345V345.931C271.537 345.623 271.472 345.337 271.373 345.071C271.279 344.806 271.152 344.574 270.99 344.376C270.829 344.173 270.626 344.017 270.381 343.907C270.136 343.793 269.847 343.735 269.514 343.735C269.175 343.735 268.881 343.808 268.631 343.954C268.381 344.1 268.175 344.3 268.014 344.556C267.857 344.811 267.74 345.108 267.662 345.446C267.584 345.785 267.545 346.147 267.545 346.532ZM279.834 349.134V345.103C279.834 344.8 279.779 344.54 279.67 344.321C279.561 344.103 279.394 343.933 279.17 343.813C278.951 343.694 278.675 343.634 278.342 343.634C278.035 343.634 277.769 343.686 277.545 343.79C277.321 343.894 277.146 344.035 277.021 344.212C276.896 344.389 276.834 344.59 276.834 344.813H274.959C274.959 344.48 275.04 344.157 275.201 343.845C275.363 343.532 275.597 343.254 275.904 343.009C276.212 342.764 276.579 342.571 277.006 342.431C277.433 342.29 277.912 342.22 278.443 342.22C279.079 342.22 279.641 342.326 280.131 342.54C280.626 342.754 281.014 343.076 281.295 343.509C281.581 343.936 281.725 344.472 281.725 345.118V348.876C281.725 349.261 281.751 349.608 281.803 349.915C281.86 350.217 281.941 350.48 282.045 350.704V350.829H280.115C280.027 350.626 279.956 350.368 279.904 350.056C279.857 349.738 279.834 349.431 279.834 349.134ZM280.107 345.688L280.123 346.853H278.771C278.423 346.853 278.115 346.886 277.85 346.954C277.584 347.017 277.363 347.11 277.186 347.235C277.008 347.36 276.876 347.511 276.787 347.688C276.699 347.866 276.654 348.066 276.654 348.29C276.654 348.514 276.706 348.72 276.811 348.907C276.915 349.09 277.066 349.233 277.264 349.337C277.467 349.441 277.712 349.493 277.998 349.493C278.383 349.493 278.719 349.415 279.006 349.259C279.298 349.097 279.527 348.902 279.693 348.673C279.86 348.438 279.949 348.217 279.959 348.009L280.568 348.845C280.506 349.058 280.399 349.287 280.248 349.532C280.097 349.777 279.899 350.011 279.654 350.235C279.415 350.454 279.126 350.634 278.787 350.774C278.454 350.915 278.068 350.985 277.631 350.985C277.079 350.985 276.587 350.876 276.154 350.657C275.722 350.433 275.383 350.134 275.139 349.759C274.894 349.379 274.771 348.949 274.771 348.47C274.771 348.022 274.855 347.626 275.021 347.282C275.193 346.933 275.443 346.642 275.771 346.407C276.105 346.173 276.511 345.996 276.99 345.876C277.469 345.751 278.016 345.688 278.631 345.688H280.107ZM287.568 342.376V343.751H282.803V342.376H287.568ZM284.178 340.306H286.061V348.493C286.061 348.754 286.097 348.954 286.17 349.095C286.248 349.23 286.355 349.321 286.49 349.368C286.626 349.415 286.785 349.438 286.967 349.438C287.097 349.438 287.222 349.431 287.342 349.415C287.462 349.399 287.558 349.384 287.631 349.368L287.639 350.806C287.482 350.853 287.3 350.894 287.092 350.931C286.889 350.967 286.654 350.985 286.389 350.985C285.956 350.985 285.574 350.91 285.24 350.759C284.907 350.603 284.646 350.35 284.459 350.001C284.271 349.652 284.178 349.188 284.178 348.61V340.306ZM288.475 346.696V346.517C288.475 345.907 288.563 345.342 288.74 344.821C288.917 344.295 289.173 343.84 289.506 343.454C289.844 343.063 290.256 342.761 290.74 342.548C291.23 342.329 291.782 342.22 292.396 342.22C293.016 342.22 293.568 342.329 294.053 342.548C294.542 342.761 294.956 343.063 295.295 343.454C295.633 343.84 295.891 344.295 296.068 344.821C296.245 345.342 296.334 345.907 296.334 346.517V346.696C296.334 347.306 296.245 347.871 296.068 348.392C295.891 348.912 295.633 349.368 295.295 349.759C294.956 350.144 294.545 350.446 294.061 350.665C293.576 350.879 293.027 350.985 292.412 350.985C291.792 350.985 291.238 350.879 290.748 350.665C290.264 350.446 289.852 350.144 289.514 349.759C289.175 349.368 288.917 348.912 288.74 348.392C288.563 347.871 288.475 347.306 288.475 346.696ZM290.357 346.517V346.696C290.357 347.076 290.396 347.436 290.475 347.774C290.553 348.113 290.675 348.41 290.842 348.665C291.008 348.92 291.222 349.121 291.482 349.267C291.743 349.412 292.053 349.485 292.412 349.485C292.761 349.485 293.063 349.412 293.318 349.267C293.579 349.121 293.792 348.92 293.959 348.665C294.126 348.41 294.248 348.113 294.326 347.774C294.41 347.436 294.451 347.076 294.451 346.696V346.517C294.451 346.142 294.41 345.787 294.326 345.454C294.248 345.116 294.123 344.816 293.951 344.556C293.785 344.295 293.571 344.092 293.311 343.946C293.055 343.795 292.751 343.72 292.396 343.72C292.042 343.72 291.735 343.795 291.475 343.946C291.219 344.092 291.008 344.295 290.842 344.556C290.675 344.816 290.553 345.116 290.475 345.454C290.396 345.787 290.357 346.142 290.357 346.517ZM299.803 343.985V350.829H297.92V342.376H299.717L299.803 343.985ZM302.389 342.321L302.373 344.071C302.258 344.05 302.133 344.035 301.998 344.024C301.868 344.014 301.738 344.009 301.607 344.009C301.285 344.009 301.001 344.056 300.756 344.149C300.511 344.238 300.305 344.368 300.139 344.54C299.977 344.707 299.852 344.91 299.764 345.149C299.675 345.389 299.623 345.657 299.607 345.954L299.178 345.985C299.178 345.454 299.23 344.962 299.334 344.509C299.438 344.056 299.594 343.657 299.803 343.313C300.016 342.97 300.282 342.701 300.6 342.509C300.923 342.316 301.295 342.22 301.717 342.22C301.831 342.22 301.954 342.23 302.084 342.251C302.219 342.272 302.321 342.295 302.389 342.321ZM308.311 348.54C308.311 348.353 308.264 348.183 308.17 348.032C308.076 347.876 307.896 347.735 307.631 347.61C307.37 347.485 306.985 347.371 306.475 347.267C306.027 347.168 305.615 347.05 305.24 346.915C304.87 346.774 304.553 346.605 304.287 346.407C304.021 346.209 303.816 345.975 303.67 345.704C303.524 345.433 303.451 345.121 303.451 344.767C303.451 344.423 303.527 344.097 303.678 343.79C303.829 343.483 304.045 343.212 304.326 342.978C304.607 342.743 304.949 342.558 305.35 342.423C305.756 342.287 306.209 342.22 306.709 342.22C307.417 342.22 308.024 342.34 308.529 342.579C309.04 342.813 309.43 343.134 309.701 343.54C309.972 343.941 310.107 344.394 310.107 344.899H308.225C308.225 344.675 308.167 344.467 308.053 344.274C307.943 344.076 307.777 343.918 307.553 343.798C307.329 343.673 307.048 343.61 306.709 343.61C306.386 343.61 306.118 343.662 305.904 343.767C305.696 343.866 305.54 343.996 305.436 344.157C305.337 344.319 305.287 344.496 305.287 344.688C305.287 344.829 305.313 344.957 305.365 345.071C305.423 345.181 305.516 345.282 305.646 345.376C305.777 345.465 305.954 345.548 306.178 345.626C306.407 345.704 306.693 345.78 307.037 345.853C307.683 345.988 308.238 346.162 308.701 346.376C309.17 346.584 309.529 346.855 309.779 347.188C310.029 347.517 310.154 347.933 310.154 348.438C310.154 348.813 310.074 349.157 309.912 349.47C309.756 349.777 309.527 350.045 309.225 350.274C308.923 350.498 308.561 350.673 308.139 350.798C307.722 350.923 307.253 350.985 306.732 350.985C305.967 350.985 305.318 350.85 304.787 350.579C304.256 350.303 303.852 349.951 303.576 349.524C303.305 349.092 303.17 348.644 303.17 348.181H304.99C305.011 348.53 305.107 348.808 305.279 349.017C305.456 349.22 305.675 349.368 305.936 349.462C306.201 349.55 306.475 349.595 306.756 349.595C307.094 349.595 307.378 349.55 307.607 349.462C307.837 349.368 308.011 349.243 308.131 349.087C308.251 348.925 308.311 348.743 308.311 348.54Z" fill="white"/>
<path d="M146.811 322.5C151.203 380.124 199.35 425.514 258.1 425.514C313.23 425.514 359.026 385.543 368.086 333" stroke="white" stroke-width="4" stroke-linecap="round"/>
</g>
<g filter="url(#filter2_d_678_392)">
<path d="M341.445 232.758H339.016L339.031 231.203H341.445C342.148 231.203 342.737 231.049 343.211 230.742C343.69 230.435 344.049 229.995 344.289 229.422C344.534 228.849 344.656 228.167 344.656 227.375V226.758C344.656 226.143 344.586 225.599 344.445 225.125C344.31 224.651 344.107 224.253 343.836 223.93C343.57 223.607 343.242 223.362 342.852 223.195C342.466 223.029 342.021 222.945 341.516 222.945H338.969V221.383H341.516C342.271 221.383 342.961 221.51 343.586 221.766C344.211 222.016 344.75 222.378 345.203 222.852C345.661 223.326 346.013 223.893 346.258 224.555C346.503 225.216 346.625 225.956 346.625 226.773V227.375C346.625 228.193 346.503 228.932 346.258 229.594C346.013 230.255 345.661 230.823 345.203 231.297C344.745 231.766 344.198 232.128 343.562 232.383C342.932 232.633 342.227 232.758 341.445 232.758ZM340.102 221.383V232.758H338.141V221.383H340.102ZM348.047 228.625V228.445C348.047 227.836 348.135 227.271 348.312 226.75C348.49 226.224 348.745 225.768 349.078 225.383C349.417 224.992 349.828 224.69 350.312 224.477C350.802 224.258 351.354 224.148 351.969 224.148C352.589 224.148 353.141 224.258 353.625 224.477C354.115 224.69 354.529 224.992 354.867 225.383C355.206 225.768 355.464 226.224 355.641 226.75C355.818 227.271 355.906 227.836 355.906 228.445V228.625C355.906 229.234 355.818 229.799 355.641 230.32C355.464 230.841 355.206 231.297 354.867 231.688C354.529 232.073 354.117 232.375 353.633 232.594C353.148 232.807 352.599 232.914 351.984 232.914C351.365 232.914 350.81 232.807 350.32 232.594C349.836 232.375 349.424 232.073 349.086 231.688C348.747 231.297 348.49 230.841 348.312 230.32C348.135 229.799 348.047 229.234 348.047 228.625ZM349.93 228.445V228.625C349.93 229.005 349.969 229.365 350.047 229.703C350.125 230.042 350.247 230.339 350.414 230.594C350.581 230.849 350.794 231.049 351.055 231.195C351.315 231.341 351.625 231.414 351.984 231.414C352.333 231.414 352.635 231.341 352.891 231.195C353.151 231.049 353.365 230.849 353.531 230.594C353.698 230.339 353.82 230.042 353.898 229.703C353.982 229.365 354.023 229.005 354.023 228.625V228.445C354.023 228.07 353.982 227.716 353.898 227.383C353.82 227.044 353.695 226.745 353.523 226.484C353.357 226.224 353.143 226.021 352.883 225.875C352.628 225.724 352.323 225.648 351.969 225.648C351.615 225.648 351.307 225.724 351.047 225.875C350.792 226.021 350.581 226.224 350.414 226.484C350.247 226.745 350.125 227.044 350.047 227.383C349.969 227.716 349.93 228.07 349.93 228.445ZM360.938 231.414C361.245 231.414 361.521 231.354 361.766 231.234C362.016 231.109 362.216 230.938 362.367 230.719C362.523 230.5 362.609 230.247 362.625 229.961H364.398C364.388 230.508 364.227 231.005 363.914 231.453C363.602 231.901 363.188 232.258 362.672 232.523C362.156 232.784 361.586 232.914 360.961 232.914C360.315 232.914 359.753 232.805 359.273 232.586C358.794 232.362 358.396 232.055 358.078 231.664C357.76 231.273 357.521 230.823 357.359 230.312C357.203 229.802 357.125 229.255 357.125 228.672V228.398C357.125 227.815 357.203 227.268 357.359 226.758C357.521 226.242 357.76 225.789 358.078 225.398C358.396 225.008 358.794 224.703 359.273 224.484C359.753 224.26 360.312 224.148 360.953 224.148C361.63 224.148 362.224 224.284 362.734 224.555C363.245 224.82 363.646 225.193 363.938 225.672C364.234 226.146 364.388 226.698 364.398 227.328H362.625C362.609 227.016 362.531 226.734 362.391 226.484C362.255 226.229 362.062 226.026 361.812 225.875C361.568 225.724 361.273 225.648 360.93 225.648C360.549 225.648 360.234 225.727 359.984 225.883C359.734 226.034 359.539 226.242 359.398 226.508C359.258 226.768 359.156 227.062 359.094 227.391C359.036 227.714 359.008 228.049 359.008 228.398V228.672C359.008 229.021 359.036 229.359 359.094 229.688C359.151 230.016 359.25 230.31 359.391 230.57C359.536 230.826 359.734 231.031 359.984 231.188C360.234 231.339 360.552 231.414 360.938 231.414ZM369.719 224.305V225.68H364.953V224.305H369.719ZM366.328 222.234H368.211V230.422C368.211 230.682 368.247 230.883 368.32 231.023C368.398 231.159 368.505 231.25 368.641 231.297C368.776 231.344 368.935 231.367 369.117 231.367C369.247 231.367 369.372 231.359 369.492 231.344C369.612 231.328 369.708 231.312 369.781 231.297L369.789 232.734C369.633 232.781 369.451 232.823 369.242 232.859C369.039 232.896 368.805 232.914 368.539 232.914C368.107 232.914 367.724 232.839 367.391 232.688C367.057 232.531 366.797 232.279 366.609 231.93C366.422 231.581 366.328 231.117 366.328 230.539V222.234ZM370.625 228.625V228.445C370.625 227.836 370.714 227.271 370.891 226.75C371.068 226.224 371.323 225.768 371.656 225.383C371.995 224.992 372.406 224.69 372.891 224.477C373.38 224.258 373.932 224.148 374.547 224.148C375.167 224.148 375.719 224.258 376.203 224.477C376.693 224.69 377.107 224.992 377.445 225.383C377.784 225.768 378.042 226.224 378.219 226.75C378.396 227.271 378.484 227.836 378.484 228.445V228.625C378.484 229.234 378.396 229.799 378.219 230.32C378.042 230.841 377.784 231.297 377.445 231.688C377.107 232.073 376.695 232.375 376.211 232.594C375.727 232.807 375.177 232.914 374.562 232.914C373.943 232.914 373.388 232.807 372.898 232.594C372.414 232.375 372.003 232.073 371.664 231.688C371.326 231.297 371.068 230.841 370.891 230.32C370.714 229.799 370.625 229.234 370.625 228.625ZM372.508 228.445V228.625C372.508 229.005 372.547 229.365 372.625 229.703C372.703 230.042 372.826 230.339 372.992 230.594C373.159 230.849 373.372 231.049 373.633 231.195C373.893 231.341 374.203 231.414 374.562 231.414C374.911 231.414 375.214 231.341 375.469 231.195C375.729 231.049 375.943 230.849 376.109 230.594C376.276 230.339 376.398 230.042 376.477 229.703C376.56 229.365 376.602 229.005 376.602 228.625V228.445C376.602 228.07 376.56 227.716 376.477 227.383C376.398 227.044 376.273 226.745 376.102 226.484C375.935 226.224 375.721 226.021 375.461 225.875C375.206 225.724 374.901 225.648 374.547 225.648C374.193 225.648 373.885 225.724 373.625 225.875C373.37 226.021 373.159 226.224 372.992 226.484C372.826 226.745 372.703 227.044 372.625 227.383C372.547 227.716 372.508 228.07 372.508 228.445ZM381.953 225.914V232.758H380.07V224.305H381.867L381.953 225.914ZM384.539 224.25L384.523 226C384.409 225.979 384.284 225.964 384.148 225.953C384.018 225.943 383.888 225.938 383.758 225.938C383.435 225.938 383.151 225.984 382.906 226.078C382.661 226.167 382.456 226.297 382.289 226.469C382.128 226.635 382.003 226.839 381.914 227.078C381.826 227.318 381.773 227.586 381.758 227.883L381.328 227.914C381.328 227.383 381.38 226.891 381.484 226.438C381.589 225.984 381.745 225.586 381.953 225.242C382.167 224.898 382.432 224.63 382.75 224.438C383.073 224.245 383.445 224.148 383.867 224.148C383.982 224.148 384.104 224.159 384.234 224.18C384.37 224.201 384.471 224.224 384.539 224.25ZM390.461 230.469C390.461 230.281 390.414 230.112 390.32 229.961C390.227 229.805 390.047 229.664 389.781 229.539C389.521 229.414 389.135 229.299 388.625 229.195C388.177 229.096 387.766 228.979 387.391 228.844C387.021 228.703 386.703 228.534 386.438 228.336C386.172 228.138 385.966 227.904 385.82 227.633C385.674 227.362 385.602 227.049 385.602 226.695C385.602 226.352 385.677 226.026 385.828 225.719C385.979 225.411 386.195 225.141 386.477 224.906C386.758 224.672 387.099 224.487 387.5 224.352C387.906 224.216 388.359 224.148 388.859 224.148C389.568 224.148 390.174 224.268 390.68 224.508C391.19 224.742 391.581 225.062 391.852 225.469C392.122 225.87 392.258 226.323 392.258 226.828H390.375C390.375 226.604 390.318 226.396 390.203 226.203C390.094 226.005 389.927 225.846 389.703 225.727C389.479 225.602 389.198 225.539 388.859 225.539C388.536 225.539 388.268 225.591 388.055 225.695C387.846 225.794 387.69 225.924 387.586 226.086C387.487 226.247 387.438 226.424 387.438 226.617C387.438 226.758 387.464 226.885 387.516 227C387.573 227.109 387.667 227.211 387.797 227.305C387.927 227.393 388.104 227.477 388.328 227.555C388.557 227.633 388.844 227.708 389.188 227.781C389.833 227.917 390.388 228.091 390.852 228.305C391.32 228.513 391.68 228.784 391.93 229.117C392.18 229.445 392.305 229.862 392.305 230.367C392.305 230.742 392.224 231.086 392.062 231.398C391.906 231.706 391.677 231.974 391.375 232.203C391.073 232.427 390.711 232.602 390.289 232.727C389.872 232.852 389.404 232.914 388.883 232.914C388.117 232.914 387.469 232.779 386.938 232.508C386.406 232.232 386.003 231.88 385.727 231.453C385.456 231.021 385.32 230.573 385.32 230.109H387.141C387.161 230.458 387.258 230.737 387.43 230.945C387.607 231.148 387.826 231.297 388.086 231.391C388.352 231.479 388.625 231.523 388.906 231.523C389.245 231.523 389.529 231.479 389.758 231.391C389.987 231.297 390.161 231.172 390.281 231.016C390.401 230.854 390.461 230.672 390.461 230.469Z" fill="white"/>
<path d="M286 116.219C303.29 105.221 323.812 98.8506 345.821 98.8506C407.464 98.8506 457.436 148.822 457.436 210.466C457.436 272.109 407.464 322.081 345.821 322.081C316.302 322.081 289.46 310.622 269.5 291.909" stroke="white" stroke-width="4" stroke-linecap="round"/>
</g>
<g filter="url(#filter3_d_678_392)">
<path d="M155.633 219.352H152.672V217.797H155.633C156.148 217.797 156.565 217.714 156.883 217.547C157.2 217.38 157.432 217.151 157.578 216.859C157.729 216.562 157.804 216.224 157.804 215.844C157.804 215.484 157.729 215.148 157.578 214.836C157.432 214.518 157.2 214.263 156.883 214.07C156.565 213.878 156.148 213.781 155.633 213.781H153.273V223.594H151.312V212.219H155.633C156.513 212.219 157.26 212.375 157.875 212.688C158.495 212.995 158.966 213.422 159.289 213.969C159.612 214.51 159.773 215.13 159.773 215.828C159.773 216.562 159.612 217.193 159.289 217.719C158.966 218.245 158.495 218.648 157.875 218.93C157.26 219.211 156.513 219.352 155.633 219.352ZM166.015 221.898V217.867C166.015 217.565 165.961 217.305 165.851 217.086C165.742 216.867 165.575 216.698 165.351 216.578C165.133 216.458 164.857 216.398 164.523 216.398C164.216 216.398 163.95 216.451 163.726 216.555C163.502 216.659 163.328 216.799 163.203 216.977C163.078 217.154 163.015 217.354 163.015 217.578H161.14C161.14 217.245 161.221 216.922 161.383 216.609C161.544 216.297 161.778 216.018 162.086 215.773C162.393 215.529 162.76 215.336 163.187 215.195C163.614 215.055 164.094 214.984 164.625 214.984C165.26 214.984 165.823 215.091 166.312 215.305C166.807 215.518 167.195 215.841 167.476 216.273C167.763 216.701 167.906 217.237 167.906 217.883V221.641C167.906 222.026 167.932 222.372 167.984 222.68C168.041 222.982 168.122 223.245 168.226 223.469V223.594H166.297C166.208 223.391 166.138 223.133 166.086 222.82C166.039 222.503 166.015 222.195 166.015 221.898ZM166.289 218.453L166.304 219.617H164.953C164.604 219.617 164.297 219.651 164.031 219.719C163.765 219.781 163.544 219.875 163.367 220C163.19 220.125 163.057 220.276 162.969 220.453C162.88 220.63 162.836 220.831 162.836 221.055C162.836 221.279 162.888 221.484 162.992 221.672C163.096 221.854 163.247 221.997 163.445 222.102C163.648 222.206 163.893 222.258 164.179 222.258C164.565 222.258 164.901 222.18 165.187 222.023C165.479 221.862 165.708 221.667 165.875 221.438C166.041 221.203 166.13 220.982 166.14 220.773L166.75 221.609C166.687 221.823 166.58 222.052 166.429 222.297C166.278 222.542 166.08 222.776 165.836 223C165.596 223.219 165.307 223.398 164.969 223.539C164.635 223.68 164.25 223.75 163.812 223.75C163.26 223.75 162.768 223.641 162.336 223.422C161.903 223.198 161.565 222.898 161.32 222.523C161.075 222.143 160.953 221.714 160.953 221.234C160.953 220.786 161.036 220.391 161.203 220.047C161.375 219.698 161.625 219.406 161.953 219.172C162.286 218.938 162.692 218.76 163.172 218.641C163.651 218.516 164.198 218.453 164.812 218.453H166.289ZM173.75 215.141V216.516H168.984V215.141H173.75ZM170.359 213.07H172.242V221.258C172.242 221.518 172.278 221.719 172.351 221.859C172.429 221.995 172.536 222.086 172.672 222.133C172.807 222.18 172.966 222.203 173.148 222.203C173.278 222.203 173.403 222.195 173.523 222.18C173.643 222.164 173.739 222.148 173.812 222.133L173.82 223.57C173.664 223.617 173.482 223.659 173.273 223.695C173.07 223.732 172.836 223.75 172.57 223.75C172.138 223.75 171.755 223.674 171.422 223.523C171.088 223.367 170.828 223.115 170.64 222.766C170.453 222.417 170.359 221.953 170.359 221.375V213.07ZM177.219 215.141V223.594H175.328V215.141H177.219ZM175.203 212.922C175.203 212.635 175.297 212.398 175.484 212.211C175.677 212.018 175.942 211.922 176.281 211.922C176.614 211.922 176.877 212.018 177.07 212.211C177.263 212.398 177.359 212.635 177.359 212.922C177.359 213.203 177.263 213.438 177.07 213.625C176.877 213.812 176.614 213.906 176.281 213.906C175.942 213.906 175.677 213.812 175.484 213.625C175.297 213.438 175.203 213.203 175.203 212.922ZM183.008 223.75C182.383 223.75 181.817 223.648 181.312 223.445C180.812 223.237 180.385 222.948 180.031 222.578C179.682 222.208 179.414 221.773 179.226 221.273C179.039 220.773 178.945 220.234 178.945 219.656V219.344C178.945 218.682 179.041 218.083 179.234 217.547C179.427 217.01 179.695 216.552 180.039 216.172C180.383 215.786 180.789 215.492 181.258 215.289C181.726 215.086 182.234 214.984 182.781 214.984C183.385 214.984 183.914 215.086 184.367 215.289C184.82 215.492 185.195 215.779 185.492 216.148C185.794 216.513 186.018 216.948 186.164 217.453C186.315 217.958 186.39 218.516 186.39 219.125V219.93H179.859V218.578H184.531V218.43C184.521 218.091 184.453 217.773 184.328 217.477C184.208 217.18 184.023 216.94 183.773 216.758C183.523 216.576 183.19 216.484 182.773 216.484C182.461 216.484 182.182 216.552 181.937 216.688C181.698 216.818 181.497 217.008 181.336 217.258C181.174 217.508 181.049 217.81 180.961 218.164C180.877 218.513 180.836 218.906 180.836 219.344V219.656C180.836 220.026 180.885 220.37 180.984 220.688C181.088 221 181.239 221.273 181.437 221.508C181.635 221.742 181.875 221.927 182.156 222.062C182.437 222.193 182.758 222.258 183.117 222.258C183.57 222.258 183.974 222.167 184.328 221.984C184.682 221.802 184.989 221.544 185.25 221.211L186.242 222.172C186.06 222.438 185.823 222.693 185.531 222.938C185.239 223.177 184.883 223.372 184.461 223.523C184.044 223.674 183.56 223.75 183.008 223.75ZM189.726 216.945V223.594H187.844V215.141H189.617L189.726 216.945ZM189.39 219.055L188.781 219.047C188.786 218.448 188.87 217.898 189.031 217.398C189.198 216.898 189.427 216.469 189.719 216.109C190.015 215.75 190.37 215.474 190.781 215.281C191.192 215.083 191.651 214.984 192.156 214.984C192.562 214.984 192.929 215.042 193.258 215.156C193.591 215.266 193.875 215.445 194.109 215.695C194.349 215.945 194.531 216.271 194.656 216.672C194.781 217.068 194.844 217.555 194.844 218.133V223.594H192.953V218.125C192.953 217.719 192.893 217.398 192.773 217.164C192.659 216.924 192.489 216.755 192.265 216.656C192.047 216.552 191.773 216.5 191.445 216.5C191.122 216.5 190.833 216.568 190.578 216.703C190.323 216.839 190.107 217.023 189.929 217.258C189.758 217.492 189.625 217.763 189.531 218.07C189.437 218.378 189.39 218.706 189.39 219.055ZM200.64 215.141V216.516H195.875V215.141H200.64ZM197.25 213.07H199.133V221.258C199.133 221.518 199.169 221.719 199.242 221.859C199.32 221.995 199.427 222.086 199.562 222.133C199.698 222.18 199.857 222.203 200.039 222.203C200.169 222.203 200.294 222.195 200.414 222.18C200.534 222.164 200.63 222.148 200.703 222.133L200.711 223.57C200.554 223.617 200.372 223.659 200.164 223.695C199.961 223.732 199.726 223.75 199.461 223.75C199.028 223.75 198.646 223.674 198.312 223.523C197.979 223.367 197.719 223.115 197.531 222.766C197.344 222.417 197.25 221.953 197.25 221.375V213.07ZM206.836 221.305C206.836 221.117 206.789 220.948 206.695 220.797C206.601 220.641 206.422 220.5 206.156 220.375C205.896 220.25 205.51 220.135 205 220.031C204.552 219.932 204.14 219.815 203.765 219.68C203.396 219.539 203.078 219.37 202.812 219.172C202.547 218.974 202.341 218.74 202.195 218.469C202.049 218.198 201.976 217.885 201.976 217.531C201.976 217.188 202.052 216.862 202.203 216.555C202.354 216.247 202.57 215.977 202.851 215.742C203.133 215.508 203.474 215.323 203.875 215.188C204.281 215.052 204.734 214.984 205.234 214.984C205.942 214.984 206.549 215.104 207.054 215.344C207.565 215.578 207.955 215.898 208.226 216.305C208.497 216.706 208.633 217.159 208.633 217.664H206.75C206.75 217.44 206.692 217.232 206.578 217.039C206.469 216.841 206.302 216.682 206.078 216.562C205.854 216.438 205.573 216.375 205.234 216.375C204.911 216.375 204.643 216.427 204.429 216.531C204.221 216.63 204.065 216.76 203.961 216.922C203.862 217.083 203.812 217.26 203.812 217.453C203.812 217.594 203.838 217.721 203.89 217.836C203.948 217.945 204.041 218.047 204.172 218.141C204.302 218.229 204.479 218.312 204.703 218.391C204.932 218.469 205.219 218.544 205.562 218.617C206.208 218.753 206.763 218.927 207.226 219.141C207.695 219.349 208.054 219.62 208.304 219.953C208.554 220.281 208.679 220.698 208.679 221.203C208.679 221.578 208.599 221.922 208.437 222.234C208.281 222.542 208.052 222.81 207.75 223.039C207.448 223.263 207.086 223.438 206.664 223.562C206.247 223.688 205.778 223.75 205.258 223.75C204.492 223.75 203.844 223.615 203.312 223.344C202.781 223.068 202.377 222.716 202.101 222.289C201.83 221.857 201.695 221.409 201.695 220.945H203.515C203.536 221.294 203.633 221.573 203.804 221.781C203.982 221.984 204.2 222.133 204.461 222.227C204.726 222.315 205 222.359 205.281 222.359C205.62 222.359 205.903 222.315 206.133 222.227C206.362 222.133 206.536 222.008 206.656 221.852C206.776 221.69 206.836 221.508 206.836 221.305Z" fill="white"/>
<rect x="61.4175" y="75.9746" width="237.562" height="237.562" rx="118.781" stroke="white" stroke-width="4" stroke-linecap="round" shape-rendering="crispEdges"/>
</g>
<g filter="url(#filter4_d_678_392)">
<path d="M213.345 462.231C213.345 461.914 213.297 461.629 213.199 461.376C213.109 461.116 212.939 460.88 212.686 460.668C212.434 460.449 212.08 460.233 211.624 460.021C211.169 459.81 210.579 459.59 209.854 459.362C209.049 459.102 208.284 458.809 207.559 458.483C206.843 458.158 206.208 457.779 205.655 457.348C205.11 456.909 204.678 456.4 204.361 455.822C204.052 455.244 203.897 454.573 203.897 453.808C203.897 453.068 204.06 452.396 204.385 451.794C204.711 451.184 205.167 450.663 205.753 450.231C206.339 449.792 207.03 449.454 207.828 449.218C208.634 448.982 209.517 448.864 210.477 448.864C211.787 448.864 212.93 449.1 213.907 449.572C214.884 450.044 215.64 450.691 216.177 451.513C216.723 452.335 216.995 453.275 216.995 454.333H213.358C213.358 453.812 213.248 453.356 213.028 452.966C212.816 452.567 212.491 452.254 212.052 452.026C211.62 451.798 211.075 451.684 210.416 451.684C209.781 451.684 209.252 451.782 208.829 451.977C208.406 452.164 208.088 452.421 207.877 452.746C207.665 453.063 207.559 453.422 207.559 453.82C207.559 454.121 207.633 454.394 207.779 454.638C207.934 454.882 208.162 455.11 208.463 455.322C208.764 455.533 209.134 455.733 209.573 455.92C210.013 456.107 210.522 456.29 211.099 456.469C212.068 456.762 212.918 457.092 213.651 457.458C214.391 457.824 215.01 458.235 215.506 458.691C216.003 459.147 216.377 459.663 216.629 460.241C216.881 460.819 217.008 461.474 217.008 462.207C217.008 462.98 216.857 463.671 216.556 464.282C216.255 464.892 215.819 465.409 215.25 465.832C214.68 466.255 214.001 466.577 213.211 466.796C212.422 467.016 211.539 467.126 210.562 467.126C209.683 467.126 208.817 467.012 207.962 466.784C207.108 466.548 206.33 466.194 205.631 465.722C204.939 465.25 204.385 464.648 203.97 463.916C203.555 463.183 203.348 462.316 203.348 461.315H207.022C207.022 461.869 207.108 462.337 207.279 462.719C207.449 463.102 207.69 463.411 207.999 463.647C208.316 463.883 208.691 464.054 209.122 464.16C209.561 464.265 210.041 464.318 210.562 464.318C211.197 464.318 211.718 464.229 212.125 464.05C212.54 463.871 212.845 463.623 213.04 463.305C213.244 462.988 213.345 462.63 213.345 462.231ZM222.544 456.213V471.96H219.028V453.674H222.287L222.544 456.213ZM230.906 460.131V460.388C230.906 461.348 230.792 462.239 230.564 463.061C230.344 463.883 230.018 464.599 229.587 465.209C229.156 465.812 228.619 466.284 227.976 466.625C227.341 466.959 226.609 467.126 225.779 467.126C224.973 467.126 224.273 466.963 223.679 466.638C223.085 466.312 222.584 465.856 222.177 465.271C221.779 464.676 221.457 463.989 221.213 463.208C220.969 462.426 220.782 461.588 220.652 460.693V460.021C220.782 459.061 220.969 458.182 221.213 457.385C221.457 456.579 221.779 455.883 222.177 455.297C222.584 454.703 223.081 454.243 223.667 453.918C224.261 453.592 224.957 453.43 225.754 453.43C226.592 453.43 227.329 453.588 227.964 453.906C228.607 454.223 229.144 454.679 229.575 455.273C230.014 455.867 230.344 456.575 230.564 457.397C230.792 458.219 230.906 459.13 230.906 460.131ZM227.378 460.388V460.131C227.378 459.57 227.329 459.053 227.231 458.581C227.142 458.101 226.995 457.682 226.792 457.324C226.596 456.966 226.336 456.689 226.01 456.494C225.693 456.29 225.307 456.188 224.851 456.188C224.371 456.188 223.96 456.266 223.618 456.42C223.284 456.575 223.012 456.799 222.8 457.092C222.588 457.385 222.43 457.735 222.324 458.142C222.218 458.549 222.153 459.008 222.129 459.521V461.218C222.169 461.82 222.283 462.361 222.47 462.841C222.658 463.313 222.947 463.688 223.337 463.964C223.728 464.241 224.24 464.379 224.875 464.379C225.339 464.379 225.73 464.278 226.047 464.074C226.365 463.863 226.621 463.574 226.816 463.208C227.02 462.841 227.162 462.418 227.243 461.938C227.333 461.458 227.378 460.941 227.378 460.388ZM232.279 460.412V460.156C232.279 459.187 232.417 458.296 232.694 457.482C232.971 456.66 233.374 455.948 233.903 455.346C234.432 454.744 235.083 454.276 235.856 453.942C236.629 453.601 237.516 453.43 238.517 453.43C239.518 453.43 240.409 453.601 241.19 453.942C241.971 454.276 242.627 454.744 243.156 455.346C243.693 455.948 244.1 456.66 244.376 457.482C244.653 458.296 244.791 459.187 244.791 460.156V460.412C244.791 461.372 244.653 462.264 244.376 463.085C244.1 463.899 243.693 464.611 243.156 465.222C242.627 465.824 241.976 466.292 241.202 466.625C240.429 466.959 239.542 467.126 238.541 467.126C237.54 467.126 236.649 466.959 235.868 466.625C235.095 466.292 234.44 465.824 233.903 465.222C233.374 464.611 232.971 463.899 232.694 463.085C232.417 462.264 232.279 461.372 232.279 460.412ZM235.795 460.156V460.412C235.795 460.965 235.844 461.482 235.941 461.962C236.039 462.443 236.193 462.866 236.405 463.232C236.625 463.59 236.91 463.871 237.26 464.074C237.609 464.278 238.037 464.379 238.541 464.379C239.03 464.379 239.449 464.278 239.799 464.074C240.149 463.871 240.429 463.59 240.641 463.232C240.852 462.866 241.007 462.443 241.105 461.962C241.211 461.482 241.263 460.965 241.263 460.412V460.156C241.263 459.619 241.211 459.114 241.105 458.642C241.007 458.162 240.848 457.739 240.629 457.373C240.417 456.998 240.136 456.705 239.786 456.494C239.436 456.282 239.013 456.176 238.517 456.176C238.02 456.176 237.597 456.282 237.247 456.494C236.906 456.705 236.625 456.998 236.405 457.373C236.193 457.739 236.039 458.162 235.941 458.642C235.844 459.114 235.795 459.619 235.795 460.156ZM250.144 456.494V466.882H246.629V453.674H249.925L250.144 456.494ZM249.632 459.814H248.679C248.679 458.837 248.806 457.958 249.058 457.177C249.31 456.388 249.664 455.716 250.12 455.163C250.576 454.602 251.117 454.174 251.743 453.881C252.378 453.58 253.086 453.43 253.867 453.43C254.486 453.43 255.052 453.519 255.564 453.698C256.077 453.877 256.516 454.162 256.883 454.553C257.257 454.943 257.542 455.46 257.737 456.103C257.941 456.746 258.042 457.531 258.042 458.459V466.882H254.502V458.447C254.502 457.861 254.421 457.405 254.258 457.08C254.095 456.754 253.855 456.526 253.538 456.396C253.229 456.258 252.846 456.188 252.39 456.188C251.918 456.188 251.507 456.282 251.157 456.469C250.816 456.656 250.531 456.917 250.303 457.25C250.083 457.576 249.916 457.958 249.802 458.398C249.689 458.837 249.632 459.309 249.632 459.814ZM267.607 463.232C267.607 462.98 267.533 462.752 267.387 462.548C267.24 462.345 266.968 462.158 266.569 461.987C266.178 461.808 265.613 461.645 264.872 461.499C264.205 461.352 263.582 461.169 263.005 460.949C262.435 460.721 261.939 460.449 261.515 460.131C261.1 459.814 260.775 459.44 260.539 459.008C260.303 458.569 260.185 458.068 260.185 457.507C260.185 456.953 260.303 456.433 260.539 455.944C260.783 455.456 261.129 455.025 261.576 454.65C262.032 454.268 262.586 453.971 263.237 453.759C263.896 453.54 264.636 453.43 265.458 453.43C266.606 453.43 267.59 453.613 268.412 453.979C269.242 454.345 269.877 454.85 270.317 455.493C270.764 456.127 270.988 456.852 270.988 457.666H267.472C267.472 457.324 267.399 457.019 267.253 456.75C267.114 456.473 266.895 456.258 266.594 456.103C266.301 455.94 265.918 455.859 265.446 455.859C265.055 455.859 264.718 455.928 264.433 456.066C264.148 456.197 263.928 456.376 263.774 456.604C263.627 456.823 263.554 457.067 263.554 457.336C263.554 457.539 263.595 457.722 263.676 457.885C263.766 458.04 263.908 458.182 264.103 458.312C264.299 458.443 264.551 458.565 264.86 458.679C265.177 458.785 265.568 458.882 266.032 458.972C266.984 459.167 267.835 459.423 268.583 459.741C269.332 460.05 269.926 460.473 270.365 461.01C270.805 461.539 271.025 462.235 271.025 463.098C271.025 463.684 270.894 464.221 270.634 464.709C270.374 465.197 269.999 465.625 269.511 465.991C269.023 466.349 268.437 466.63 267.753 466.833C267.078 467.028 266.317 467.126 265.47 467.126C264.242 467.126 263.2 466.906 262.345 466.467C261.499 466.027 260.856 465.47 260.417 464.794C259.985 464.111 259.77 463.411 259.77 462.695H263.102C263.119 463.175 263.241 463.562 263.469 463.854C263.705 464.147 264.002 464.359 264.36 464.489C264.726 464.619 265.121 464.685 265.544 464.685C265.999 464.685 266.378 464.624 266.679 464.501C266.98 464.371 267.208 464.2 267.363 463.989C267.525 463.769 267.607 463.517 267.607 463.232ZM272.496 460.412V460.156C272.496 459.187 272.634 458.296 272.911 457.482C273.188 456.66 273.59 455.948 274.119 455.346C274.648 454.744 275.299 454.276 276.073 453.942C276.846 453.601 277.733 453.43 278.734 453.43C279.735 453.43 280.626 453.601 281.407 453.942C282.188 454.276 282.843 454.744 283.372 455.346C283.909 455.948 284.316 456.66 284.593 457.482C284.87 458.296 285.008 459.187 285.008 460.156V460.412C285.008 461.372 284.87 462.264 284.593 463.085C284.316 463.899 283.909 464.611 283.372 465.222C282.843 465.824 282.192 466.292 281.419 466.625C280.646 466.959 279.759 467.126 278.758 467.126C277.757 467.126 276.866 466.959 276.085 466.625C275.312 466.292 274.656 465.824 274.119 465.222C273.59 464.611 273.188 463.899 272.911 463.085C272.634 462.264 272.496 461.372 272.496 460.412ZM276.011 460.156V460.412C276.011 460.965 276.06 461.482 276.158 461.962C276.256 462.443 276.41 462.866 276.622 463.232C276.842 463.59 277.126 463.871 277.476 464.074C277.826 464.278 278.253 464.379 278.758 464.379C279.246 464.379 279.665 464.278 280.015 464.074C280.365 463.871 280.646 463.59 280.858 463.232C281.069 462.866 281.224 462.443 281.322 461.962C281.427 461.482 281.48 460.965 281.48 460.412V460.156C281.48 459.619 281.427 459.114 281.322 458.642C281.224 458.162 281.065 457.739 280.845 457.373C280.634 456.998 280.353 456.705 280.003 456.494C279.653 456.282 279.23 456.176 278.734 456.176C278.237 456.176 277.814 456.282 277.464 456.494C277.122 456.705 276.842 456.998 276.622 457.373C276.41 457.739 276.256 458.162 276.158 458.642C276.06 459.114 276.011 459.619 276.011 460.156ZM290.434 456.555V466.882H286.919V453.674H290.227L290.434 456.555ZM294.414 453.588L294.353 456.848C294.182 456.823 293.974 456.803 293.73 456.787C293.494 456.762 293.279 456.75 293.083 456.75C292.587 456.75 292.156 456.815 291.789 456.945C291.431 457.067 291.13 457.25 290.886 457.495C290.65 457.739 290.471 458.036 290.349 458.386C290.235 458.736 290.17 459.134 290.154 459.582L289.446 459.362C289.446 458.508 289.531 457.722 289.702 457.006C289.873 456.282 290.121 455.651 290.447 455.114C290.78 454.577 291.187 454.162 291.667 453.869C292.147 453.576 292.697 453.43 293.315 453.43C293.51 453.43 293.71 453.446 293.913 453.479C294.117 453.503 294.284 453.54 294.414 453.588ZM302.965 463.232C302.965 462.98 302.892 462.752 302.745 462.548C302.599 462.345 302.326 462.158 301.927 461.987C301.537 461.808 300.971 461.645 300.231 461.499C299.563 461.352 298.941 461.169 298.363 460.949C297.793 460.721 297.297 460.449 296.874 460.131C296.459 459.814 296.133 459.44 295.897 459.008C295.661 458.569 295.543 458.068 295.543 457.507C295.543 456.953 295.661 456.433 295.897 455.944C296.141 455.456 296.487 455.025 296.935 454.65C297.391 454.268 297.944 453.971 298.595 453.759C299.254 453.54 299.995 453.43 300.817 453.43C301.964 453.43 302.949 453.613 303.771 453.979C304.601 454.345 305.236 454.85 305.675 455.493C306.123 456.127 306.346 456.852 306.346 457.666H302.831C302.831 457.324 302.758 457.019 302.611 456.75C302.473 456.473 302.253 456.258 301.952 456.103C301.659 455.94 301.276 455.859 300.804 455.859C300.414 455.859 300.076 455.928 299.791 456.066C299.506 456.197 299.287 456.376 299.132 456.604C298.986 456.823 298.912 457.067 298.912 457.336C298.912 457.539 298.953 457.722 299.034 457.885C299.124 458.04 299.266 458.182 299.462 458.312C299.657 458.443 299.909 458.565 300.219 458.679C300.536 458.785 300.927 458.882 301.39 458.972C302.343 459.167 303.193 459.423 303.942 459.741C304.69 460.05 305.284 460.473 305.724 461.01C306.163 461.539 306.383 462.235 306.383 463.098C306.383 463.684 306.253 464.221 305.992 464.709C305.732 465.197 305.358 465.625 304.869 465.991C304.381 466.349 303.795 466.63 303.112 466.833C302.436 467.028 301.675 467.126 300.829 467.126C299.6 467.126 298.558 466.906 297.704 466.467C296.858 466.027 296.215 465.47 295.775 464.794C295.344 464.111 295.128 463.411 295.128 462.695H298.461C298.477 463.175 298.599 463.562 298.827 463.854C299.063 464.147 299.36 464.359 299.718 464.489C300.084 464.619 300.479 464.685 300.902 464.685C301.358 464.685 301.736 464.624 302.037 464.501C302.338 464.371 302.566 464.2 302.721 463.989C302.884 463.769 302.965 463.517 302.965 463.232Z" fill="white"/>
</g>
<g filter="url(#filter5_d_678_392)">
<path d="M181.219 197.529C181.305 197.881 181.66 198.096 182.011 198.01L187.737 196.609C188.089 196.523 188.304 196.168 188.218 195.817C188.132 195.466 187.777 195.25 187.426 195.336L182.336 196.582L181.09 191.492C181.004 191.141 180.65 190.926 180.299 191.012C179.947 191.097 179.732 191.452 179.818 191.803L181.219 197.529ZM358.41 209.441C358.748 209.571 359.127 209.404 359.258 209.067L361.389 203.57C361.52 203.233 361.352 202.854 361.015 202.723C360.678 202.592 360.298 202.76 360.167 203.097L358.273 207.982L353.388 206.088C353.05 205.957 352.671 206.125 352.54 206.462C352.409 206.799 352.577 207.179 352.914 207.31L358.41 209.441ZM367.561 248.627C367.305 248.371 366.89 248.371 366.635 248.627L362.466 252.796C362.21 253.051 362.21 253.466 362.466 253.722C362.722 253.978 363.137 253.978 363.393 253.722L367.098 250.017L370.803 253.722C371.059 253.978 371.474 253.978 371.729 253.722C371.985 253.466 371.985 253.051 371.729 252.796L367.561 248.627ZM316.059 335.677C315.963 336.025 316.169 336.386 316.518 336.481L322.205 338.034C322.554 338.13 322.914 337.924 323.009 337.575C323.104 337.226 322.899 336.866 322.55 336.771L317.495 335.39L318.876 330.335C318.971 329.986 318.765 329.626 318.416 329.531C318.068 329.435 317.707 329.641 317.612 329.99L316.059 335.677ZM212.077 332.851C212.431 332.78 212.662 332.435 212.591 332.08L211.435 326.3C211.364 325.945 211.019 325.715 210.665 325.786C210.31 325.857 210.08 326.202 210.151 326.556L211.178 331.695L206.039 332.722C205.685 332.793 205.454 333.138 205.525 333.492C205.596 333.847 205.941 334.077 206.296 334.006L212.077 332.851ZM167.896 248.627C167.64 248.371 167.225 248.371 166.97 248.627L162.801 252.796C162.546 253.051 162.546 253.466 162.801 253.722C163.057 253.978 163.472 253.978 163.728 253.722L167.433 250.017L171.138 253.722C171.394 253.978 171.809 253.978 172.064 253.722C172.32 253.466 172.32 253.051 172.064 252.796L167.896 248.627ZM183.885 195.366C184.082 195.062 183.994 194.656 183.69 194.46C183.387 194.264 182.981 194.351 182.785 194.655L183.885 195.366ZM188.073 187.226C187.85 187.511 187.9 187.923 188.185 188.146C188.47 188.369 188.882 188.318 189.105 188.033L188.073 187.226ZM192.638 183.767C192.876 183.495 192.849 183.081 192.577 182.843C192.305 182.604 191.891 182.631 191.652 182.904L192.638 183.767ZM197.964 176.323C197.702 176.573 197.692 176.987 197.941 177.249C198.191 177.511 198.606 177.521 198.867 177.271L197.964 176.323ZM202.983 173.563C203.258 173.329 203.291 172.915 203.057 172.64C202.822 172.365 202.409 172.331 202.133 172.566L202.983 173.563ZM209.334 166.972C209.039 167.181 208.969 167.59 209.177 167.885C209.386 168.181 209.795 168.251 210.09 168.042L209.334 166.972ZM214.701 164.972C215.008 164.78 215.101 164.376 214.909 164.069C214.717 163.763 214.313 163.67 214.006 163.862L214.701 164.972ZM221.946 159.378C221.623 159.542 221.494 159.936 221.657 160.259C221.821 160.581 222.215 160.711 222.538 160.547L221.946 159.378ZM227.548 158.185C227.879 158.04 228.03 157.654 227.885 157.323C227.74 156.991 227.354 156.84 227.023 156.985L227.548 158.185ZM235.535 153.715C235.192 153.83 235.006 154.2 235.12 154.544C235.234 154.887 235.605 155.073 235.949 154.958L235.535 153.715ZM241.253 153.359C241.602 153.264 241.808 152.905 241.714 152.555C241.619 152.206 241.259 152 240.91 152.095L241.253 153.359ZM249.81 150.114C249.454 150.176 249.215 150.515 249.278 150.872C249.34 151.228 249.68 151.466 250.036 151.404L249.81 150.114ZM255.516 150.601C255.875 150.559 256.132 150.233 256.09 149.874C256.047 149.515 255.722 149.258 255.362 149.3L255.516 150.601ZM264.457 148.641C264.096 148.651 263.811 148.952 263.821 149.314C263.831 149.676 264.132 149.961 264.493 149.951L264.457 148.641ZM269.998 149.95C270.36 149.96 270.661 149.674 270.671 149.313C270.68 148.951 270.395 148.65 270.034 148.64L269.998 149.95ZM278.994 149.28C278.634 149.238 278.309 149.496 278.267 149.855C278.226 150.214 278.483 150.539 278.842 150.581L278.994 149.28ZM284.247 151.361C284.603 151.422 284.942 151.183 285.004 150.827C285.065 150.47 284.826 150.131 284.47 150.07L284.247 151.361ZM293.244 151.993C292.895 151.9 292.536 152.108 292.443 152.457C292.349 152.807 292.557 153.166 292.907 153.259L293.244 151.993ZM298.141 154.813C298.485 154.925 298.855 154.738 298.967 154.394C299.08 154.05 298.892 153.68 298.548 153.568L298.141 154.813ZM306.952 156.744C306.62 156.601 306.235 156.755 306.092 157.087C305.949 157.419 306.102 157.804 306.435 157.947L306.952 156.744ZM311.388 160.243C311.712 160.405 312.105 160.273 312.266 159.949C312.427 159.625 312.295 159.232 311.971 159.071L311.388 160.243ZM319.828 163.429C319.519 163.24 319.116 163.336 318.927 163.644C318.737 163.952 318.833 164.356 319.141 164.545L319.828 163.429ZM323.711 167.532C324.009 167.738 324.417 167.664 324.623 167.367C324.829 167.069 324.755 166.661 324.458 166.455L323.711 167.532ZM331.606 171.899C331.328 171.667 330.915 171.704 330.683 171.982C330.452 172.26 330.489 172.673 330.767 172.905L331.606 171.899ZM334.861 176.515C335.125 176.762 335.54 176.747 335.786 176.483C336.033 176.218 336.018 175.804 335.754 175.557L334.861 176.515ZM342.049 181.968C341.807 181.699 341.393 181.677 341.124 181.919C340.854 182.16 340.832 182.574 341.074 182.844L342.049 181.968ZM344.609 187.003C344.836 187.285 345.248 187.33 345.53 187.103C345.812 186.876 345.857 186.464 345.63 186.182L344.609 187.003ZM350.942 193.429C350.741 193.128 350.334 193.047 350.033 193.248C349.732 193.448 349.651 193.855 349.852 194.156L350.942 193.429ZM352.753 198.779C352.937 199.091 353.338 199.195 353.65 199.011C353.961 198.827 354.065 198.425 353.881 198.114L352.753 198.779ZM358.095 206.05C357.94 205.723 357.549 205.584 357.222 205.739C356.895 205.894 356.756 206.285 356.911 206.612L358.095 206.05ZM319.188 335.141C319.497 334.954 319.597 334.551 319.41 334.242C319.222 333.932 318.82 333.833 318.51 334.02L319.188 335.141ZM325.248 329.562C324.955 329.773 324.889 330.183 325.1 330.476C325.312 330.769 325.722 330.836 326.015 330.624L325.248 329.562ZM330.025 327.574C330.308 327.348 330.353 326.936 330.127 326.653C329.901 326.371 329.489 326.325 329.206 326.551L330.025 327.574ZM335.304 321.25C335.041 321.498 335.029 321.913 335.277 322.176C335.525 322.439 335.94 322.451 336.203 322.203L335.304 321.25ZM339.781 318.655C340.031 318.394 340.022 317.98 339.761 317.729C339.5 317.479 339.086 317.487 338.835 317.748L339.781 318.655ZM344.189 311.697C343.96 311.977 344.002 312.39 344.283 312.618C344.563 312.847 344.976 312.805 345.204 312.524L344.189 311.697ZM348.289 308.54C348.503 308.248 348.44 307.839 348.149 307.624C347.857 307.41 347.448 307.473 347.233 307.764L348.289 308.54ZM351.749 301.065C351.56 301.373 351.655 301.777 351.963 301.966C352.271 302.156 352.675 302.06 352.865 301.753L351.749 301.065ZM355.401 297.398C355.575 297.081 355.459 296.683 355.142 296.509C354.825 296.334 354.427 296.45 354.253 296.767L355.401 297.398ZM357.849 289.534C357.701 289.864 357.849 290.251 358.18 290.399C358.51 290.547 358.897 290.399 359.045 290.068L357.849 289.534ZM360.986 285.417C361.116 285.08 360.949 284.701 360.612 284.57C360.274 284.439 359.895 284.606 359.764 284.944L360.986 285.417ZM362.374 277.299C362.271 277.646 362.469 278.01 362.816 278.113C363.163 278.216 363.527 278.018 363.63 277.671L362.374 277.299ZM364.939 272.803C365.024 272.452 364.808 272.098 364.456 272.013C364.104 271.928 363.75 272.144 363.665 272.495L364.939 272.803ZM365.241 264.573C365.185 264.931 365.43 265.266 365.787 265.322C366.144 265.378 366.48 265.134 366.536 264.776L365.241 264.573ZM367.191 259.779C367.229 259.419 366.968 259.097 366.609 259.059C366.249 259.021 365.926 259.281 365.888 259.641L367.191 259.779ZM366.412 251.58C366.403 251.941 366.689 252.242 367.051 252.251C367.412 252.26 367.713 251.974 367.722 251.612L366.412 251.58ZM166.813 251.781C166.823 252.143 167.124 252.428 167.485 252.419C167.847 252.409 168.132 252.108 168.123 251.747L166.813 251.781ZM168.72 260.352C168.68 259.993 168.355 259.734 167.996 259.775C167.636 259.816 167.378 260.14 167.418 260.499L168.72 260.352ZM168.165 265.825C168.225 266.182 168.563 266.423 168.919 266.363C169.276 266.303 169.517 265.966 169.457 265.609L168.165 265.825ZM171.253 274.043C171.162 273.693 170.805 273.483 170.455 273.573C170.105 273.664 169.894 274.022 169.985 274.372L171.253 274.043ZM171.475 279.542C171.584 279.887 171.953 280.077 172.297 279.968C172.642 279.858 172.833 279.49 172.723 279.145L171.475 279.542ZM175.692 287.243C175.553 286.909 175.169 286.751 174.835 286.891C174.501 287.03 174.343 287.413 174.483 287.747L175.692 287.243ZM176.686 292.654C176.843 292.98 177.235 293.117 177.561 292.96C177.887 292.803 178.023 292.411 177.866 292.085L176.686 292.654ZM181.945 299.684C181.761 299.373 181.359 299.271 181.048 299.456C180.737 299.641 180.634 300.043 180.819 300.354L181.945 299.684ZM183.69 304.902C183.891 305.203 184.298 305.284 184.599 305.082C184.899 304.881 184.98 304.474 184.779 304.174L183.69 304.902ZM189.882 311.128C189.655 310.846 189.243 310.801 188.961 311.027C188.679 311.253 188.634 311.666 188.86 311.948L189.882 311.128ZM192.338 316.051C192.579 316.321 192.993 316.344 193.262 316.103C193.532 315.862 193.555 315.448 193.314 315.178L192.338 316.051ZM199.336 321.353C199.073 321.105 198.658 321.118 198.41 321.381C198.163 321.645 198.175 322.059 198.439 322.307L199.336 321.353ZM202.454 325.886C202.73 326.12 203.143 326.085 203.377 325.809C203.61 325.532 203.575 325.119 203.299 324.886L202.454 325.886ZM210.123 330.161C209.827 329.953 209.419 330.023 209.21 330.319C209.001 330.614 209.072 331.023 209.367 331.232L210.123 330.161ZM182.415 197.714C182.895 196.924 183.385 196.141 183.885 195.366L182.785 194.655C182.278 195.441 181.781 196.234 181.295 197.034L182.415 197.714ZM189.105 188.033C190.243 186.578 191.421 185.155 192.638 183.767L191.652 182.904C190.42 184.31 189.226 185.752 188.073 187.226L189.105 188.033ZM198.867 177.271C200.204 175.998 201.577 174.761 202.983 173.563L202.133 172.566C200.709 173.78 199.318 175.033 197.964 176.323L198.867 177.271ZM210.09 168.042C211.597 166.977 213.134 165.953 214.701 164.972L214.006 163.862C212.419 164.856 210.861 165.893 209.334 166.972L210.09 168.042ZM222.538 160.547C224.182 159.715 225.852 158.927 227.548 158.185L227.023 156.985C225.305 157.737 223.612 158.535 221.946 159.378L222.538 160.547ZM235.949 154.958C237.696 154.378 239.464 153.844 241.253 153.359L240.91 152.095C239.098 152.586 237.306 153.127 235.535 153.715L235.949 154.958ZM250.036 151.404C251.846 151.087 253.673 150.819 255.516 150.601L255.362 149.3C253.495 149.521 251.644 149.792 249.81 150.114L250.036 151.404ZM264.493 149.951C265.414 149.926 266.338 149.913 267.265 149.913V148.603C266.326 148.603 265.39 148.616 264.457 148.641L264.493 149.951ZM267.265 149.913C268.179 149.913 269.09 149.925 269.998 149.95L270.034 148.64C269.114 148.615 268.191 148.603 267.265 148.603V149.913ZM278.842 150.581C280.659 150.792 282.461 151.053 284.247 151.361L284.47 150.07C282.66 149.758 280.835 149.494 278.994 149.28L278.842 150.581ZM292.907 153.259C294.671 153.73 296.416 154.248 298.141 154.813L298.548 153.568C296.801 152.996 295.032 152.471 293.244 151.993L292.907 153.259ZM306.435 157.947C308.11 158.668 309.761 159.434 311.388 160.243L311.971 159.071C310.323 158.251 308.65 157.475 306.952 156.744L306.435 157.947ZM319.141 164.545C320.694 165.5 322.217 166.496 323.711 167.532L324.458 166.455C322.944 165.406 321.4 164.396 319.828 163.429L319.141 164.545ZM330.767 172.905C332.164 174.071 333.53 175.275 334.861 176.515L335.754 175.557C334.405 174.3 333.022 173.08 331.606 171.899L330.767 172.905ZM341.074 182.844C342.29 184.197 343.468 185.584 344.609 187.003L345.63 186.182C344.474 184.745 343.28 183.339 342.049 181.968L341.074 182.844ZM349.852 194.156C350.86 195.668 351.827 197.21 352.753 198.779L353.881 198.114C352.943 196.524 351.963 194.962 350.942 193.429L349.852 194.156ZM356.911 206.612C357.301 207.433 357.68 208.261 358.048 209.094L359.246 208.566C358.874 207.721 358.49 206.882 358.095 206.05L356.911 206.612ZM317.015 336.418C317.745 336.001 318.47 335.576 319.188 335.141L318.51 334.02C317.801 334.449 317.086 334.869 316.366 335.28L317.015 336.418ZM326.015 330.624C327.378 329.64 328.715 328.623 330.025 327.574L329.206 326.551C327.913 327.587 326.593 328.591 325.248 329.562L326.015 330.624ZM336.203 322.203C337.425 321.05 338.618 319.867 339.781 318.655L338.835 317.748C337.687 318.945 336.51 320.112 335.304 321.25L336.203 322.203ZM345.204 312.524C346.265 311.223 347.293 309.894 348.289 308.54L347.233 307.764C346.251 309.101 345.236 310.412 344.189 311.697L345.204 312.524ZM352.865 301.753C353.745 300.324 354.591 298.872 355.401 297.398L354.253 296.767C353.453 298.223 352.618 299.656 351.749 301.065L352.865 301.753ZM359.045 290.068C359.729 288.538 360.377 286.987 360.986 285.417L359.764 284.944C359.163 286.493 358.525 288.023 357.849 289.534L359.045 290.068ZM363.63 277.671C364.106 276.065 364.542 274.442 364.939 272.803L363.665 272.495C363.274 274.112 362.843 275.714 362.374 277.299L363.63 277.671ZM366.536 264.776C366.795 263.123 367.014 261.457 367.191 259.779L365.888 259.641C365.713 261.298 365.497 262.942 365.241 264.573L366.536 264.776ZM367.722 251.612C367.742 250.774 367.753 249.933 367.753 249.09H366.443C366.443 249.923 366.433 250.752 366.412 251.58L367.722 251.612ZM166.778 249.09C166.778 249.99 166.79 250.887 166.813 251.781L168.123 251.747C168.1 250.864 168.088 249.979 168.088 249.09H166.778ZM167.418 260.499C167.621 262.289 167.87 264.065 168.165 265.825L169.457 265.609C169.166 263.872 168.92 262.119 168.72 260.352L167.418 260.499ZM169.985 274.372C170.437 276.114 170.934 277.838 171.475 279.542L172.723 279.145C172.189 277.464 171.699 275.762 171.253 274.043L169.985 274.372ZM174.483 287.747C175.175 289.406 175.91 291.042 176.686 292.654L177.866 292.085C177.1 290.494 176.375 288.88 175.692 287.243L174.483 287.747ZM180.819 300.354C181.736 301.897 182.694 303.414 183.69 304.902L184.779 304.174C183.796 302.705 182.851 301.208 181.945 299.684L180.819 300.354ZM188.86 311.948C189.983 313.347 191.143 314.715 192.338 316.051L193.314 315.178C192.135 313.859 190.99 312.509 189.882 311.128L188.86 311.948ZM198.439 322.307C199.745 323.535 201.084 324.729 202.454 325.886L203.299 324.886C201.947 323.743 200.625 322.565 199.336 321.353L198.439 322.307ZM209.367 331.232C210.099 331.749 210.839 332.256 211.585 332.754L212.312 331.664C211.575 331.173 210.845 330.672 210.123 330.161L209.367 331.232ZM180.583 197.685C180.755 198.388 181.464 198.818 182.167 198.646L193.619 195.844C194.322 195.672 194.752 194.963 194.58 194.26C194.408 193.557 193.699 193.127 192.996 193.299L182.816 195.79L180.326 185.61C180.154 184.908 179.444 184.477 178.742 184.649C178.039 184.821 177.609 185.53 177.781 186.233L180.583 197.685ZM358.174 210.051C358.848 210.313 359.607 209.978 359.869 209.304L364.131 198.311C364.392 197.636 364.057 196.877 363.383 196.616C362.708 196.354 361.949 196.689 361.688 197.364L357.899 207.135L348.128 203.347C347.453 203.085 346.695 203.42 346.433 204.094C346.172 204.769 346.506 205.528 347.181 205.789L358.174 210.051ZM368.024 248.164C367.513 247.652 366.683 247.652 366.171 248.164L357.835 256.501C357.323 257.012 357.323 257.842 357.835 258.353C358.346 258.865 359.176 258.865 359.687 258.353L367.098 250.943L374.508 258.353C375.02 258.865 375.849 258.865 376.361 258.353C376.872 257.842 376.872 257.012 376.361 256.501L368.024 248.164ZM315.427 335.504C315.236 336.202 315.647 336.922 316.345 337.113L327.719 340.219C328.417 340.41 329.137 339.999 329.328 339.301C329.518 338.603 329.107 337.883 328.409 337.692L318.299 334.931L321.061 324.821C321.252 324.123 320.84 323.403 320.142 323.212C319.444 323.021 318.724 323.433 318.533 324.131L315.427 335.504ZM212.205 333.493C212.915 333.352 213.375 332.661 213.233 331.952L210.922 320.391C210.78 319.681 210.09 319.221 209.381 319.363C208.671 319.505 208.211 320.195 208.353 320.904L210.407 331.181L200.13 333.235C199.421 333.377 198.961 334.067 199.102 334.776C199.244 335.486 199.934 335.946 200.644 335.804L212.205 333.493ZM168.359 248.164C167.848 247.652 167.018 247.652 166.507 248.164L158.17 256.501C157.658 257.012 157.658 257.842 158.17 258.353C158.681 258.865 159.511 258.865 160.022 258.353L167.433 250.943L174.843 258.353C175.355 258.865 176.184 258.865 176.696 258.353C177.208 257.842 177.208 257.012 176.696 256.501L168.359 248.164ZM184.436 195.721C184.828 195.113 184.654 194.302 184.046 193.91C183.438 193.517 182.627 193.692 182.235 194.3L184.436 195.721ZM187.557 186.823C187.111 187.393 187.212 188.216 187.781 188.662C188.351 189.107 189.175 189.007 189.62 188.437L187.557 186.823ZM193.13 184.198C193.607 183.654 193.552 182.827 193.008 182.35C192.464 181.873 191.636 181.928 191.16 182.472L193.13 184.198ZM197.512 175.849C196.988 176.348 196.968 177.177 197.467 177.701C197.966 178.225 198.795 178.245 199.319 177.746L197.512 175.849ZM203.408 174.062C203.958 173.593 204.025 172.766 203.555 172.215C203.086 171.664 202.259 171.598 201.709 172.068L203.408 174.062ZM208.956 166.437C208.365 166.855 208.225 167.672 208.643 168.263C209.06 168.854 209.878 168.994 210.468 168.577L208.956 166.437ZM215.049 165.527C215.662 165.143 215.848 164.335 215.464 163.722C215.08 163.109 214.272 162.923 213.658 163.307L215.049 165.527ZM221.65 158.794C221.005 159.121 220.746 159.909 221.073 160.554C221.4 161.2 222.188 161.458 222.833 161.132L221.65 158.794ZM227.81 158.785C228.473 158.495 228.775 157.723 228.485 157.06C228.195 156.397 227.423 156.095 226.76 156.385L227.81 158.785ZM235.329 153.094C234.642 153.322 234.271 154.064 234.499 154.75C234.727 155.437 235.469 155.808 236.155 155.58L235.329 153.094ZM241.424 153.991C242.123 153.802 242.535 153.082 242.346 152.384C242.157 151.686 241.437 151.273 240.739 151.462L241.424 153.991ZM249.697 149.468C248.984 149.593 248.508 150.272 248.633 150.985C248.757 151.697 249.436 152.174 250.149 152.049L249.697 149.468ZM255.593 151.252C256.311 151.167 256.825 150.516 256.74 149.797C256.655 149.079 256.004 148.565 255.286 148.65L255.593 151.252ZM264.44 147.987C263.716 148.006 263.146 148.609 263.166 149.332C263.186 150.055 263.788 150.625 264.511 150.606L264.44 147.987ZM269.98 150.604C270.704 150.624 271.306 150.054 271.325 149.33C271.345 148.607 270.775 148.005 270.051 147.985L269.98 150.604ZM279.069 148.629C278.351 148.546 277.7 149.061 277.617 149.779C277.533 150.498 278.048 151.148 278.767 151.232L279.069 148.629ZM284.135 152.006C284.848 152.129 285.526 151.651 285.649 150.938C285.772 150.225 285.294 149.547 284.581 149.424L284.135 152.006ZM293.413 151.361C292.714 151.174 291.996 151.589 291.81 152.289C291.623 152.988 292.039 153.705 292.738 153.892L293.413 151.361ZM297.937 155.435C298.625 155.66 299.365 155.285 299.59 154.598C299.815 153.91 299.44 153.17 298.752 152.945L297.937 155.435ZM307.211 156.143C306.547 155.857 305.776 156.163 305.49 156.828C305.204 157.493 305.511 158.263 306.176 158.549L307.211 156.143ZM311.096 160.83C311.744 161.152 312.53 160.888 312.852 160.241C313.175 159.593 312.911 158.806 312.263 158.484L311.096 160.83ZM320.171 162.872C319.554 162.493 318.748 162.685 318.369 163.301C317.99 163.918 318.182 164.724 318.798 165.103L320.171 162.872ZM323.338 168.07C323.933 168.482 324.749 168.334 325.161 167.74C325.573 167.145 325.426 166.329 324.831 165.917L323.338 168.07ZM332.025 171.396C331.47 170.932 330.644 171.007 330.18 171.562C329.717 172.118 329.791 172.944 330.347 173.408L332.025 171.396ZM334.414 176.995C334.943 177.488 335.772 177.459 336.266 176.929C336.759 176.4 336.73 175.571 336.2 175.078L334.414 176.995ZM342.536 181.531C342.052 180.992 341.224 180.948 340.686 181.431C340.148 181.915 340.103 182.743 340.587 183.281L342.536 181.531ZM344.098 187.413C344.552 187.977 345.376 188.067 345.94 187.614C346.504 187.16 346.594 186.336 346.141 185.772L344.098 187.413ZM351.487 193.066C351.085 192.464 350.272 192.301 349.67 192.703C349.068 193.104 348.905 193.917 349.307 194.519L351.487 193.066ZM352.189 199.112C352.556 199.735 353.359 199.943 353.983 199.575C354.606 199.207 354.813 198.404 354.445 197.781L352.189 199.112ZM358.686 205.769C358.376 205.116 357.595 204.837 356.941 205.148C356.288 205.458 356.009 206.239 356.32 206.893L358.686 205.769ZM319.527 335.702C320.146 335.327 320.344 334.522 319.97 333.903C319.596 333.284 318.79 333.085 318.171 333.46L319.527 335.702ZM324.865 329.03C324.278 329.454 324.146 330.273 324.569 330.859C324.993 331.446 325.812 331.578 326.398 331.155L324.865 329.03ZM330.435 328.085C330.999 327.633 331.091 326.809 330.638 326.244C330.186 325.679 329.362 325.588 328.797 326.04L330.435 328.085ZM334.854 320.773C334.328 321.27 334.304 322.099 334.8 322.625C335.297 323.151 336.126 323.176 336.652 322.679L334.854 320.773ZM340.253 319.109C340.754 318.587 340.737 317.758 340.215 317.257C339.693 316.756 338.864 316.773 338.363 317.295L340.253 319.109ZM343.681 311.283C343.224 311.844 343.308 312.669 343.869 313.126C344.43 313.583 345.255 313.499 345.712 312.938L343.681 311.283ZM348.817 308.928C349.245 308.345 349.12 307.525 348.537 307.096C347.954 306.668 347.134 306.793 346.706 307.376L348.817 308.928ZM351.192 300.721C350.812 301.337 351.004 302.144 351.62 302.524C352.235 302.904 353.042 302.712 353.422 302.096L351.192 300.721ZM355.975 297.713C356.323 297.079 356.091 296.283 355.457 295.935C354.823 295.586 354.027 295.818 353.678 296.452L355.975 297.713ZM357.251 289.266C356.956 289.927 357.252 290.702 357.912 290.997C358.573 291.292 359.348 290.996 359.643 290.336L357.251 289.266ZM361.596 285.654C361.858 284.98 361.523 284.221 360.849 283.959C360.174 283.697 359.415 284.032 359.154 284.707L361.596 285.654ZM361.746 277.113C361.54 277.807 361.936 278.536 362.63 278.741C363.324 278.946 364.053 278.551 364.258 277.857L361.746 277.113ZM365.575 272.957C365.745 272.254 365.313 271.546 364.61 271.376C363.907 271.206 363.199 271.638 363.029 272.341L365.575 272.957ZM364.594 264.472C364.482 265.187 364.971 265.857 365.686 265.969C366.4 266.081 367.071 265.592 367.183 264.878L364.594 264.472ZM367.842 259.848C367.918 259.128 367.397 258.483 366.677 258.407C365.958 258.331 365.313 258.853 365.237 259.572L367.842 259.848ZM365.757 251.564C365.74 252.287 366.311 252.888 367.035 252.906C367.758 252.923 368.359 252.351 368.377 251.628L365.757 251.564ZM166.158 251.798C166.177 252.522 166.779 253.092 167.502 253.073C168.226 253.054 168.797 252.453 168.778 251.729L166.158 251.798ZM169.371 260.279C169.29 259.56 168.641 259.043 167.922 259.124C167.203 259.205 166.686 259.854 166.768 260.573L169.371 260.279ZM167.519 265.934C167.639 266.647 168.314 267.129 169.028 267.009C169.741 266.889 170.223 266.214 170.103 265.501L167.519 265.934ZM171.887 273.879C171.706 273.179 170.991 272.758 170.29 272.939C169.59 273.121 169.17 273.836 169.351 274.536L171.887 273.879ZM170.851 279.74C171.07 280.43 171.806 280.811 172.496 280.592C173.185 280.373 173.567 279.636 173.348 278.947L170.851 279.74ZM176.296 286.991C176.018 286.323 175.251 286.007 174.583 286.286C173.915 286.565 173.6 287.332 173.878 287.999L176.296 286.991ZM176.096 292.938C176.41 293.59 177.193 293.864 177.845 293.55C178.497 293.236 178.771 292.453 178.457 291.801L176.096 292.938ZM182.508 299.35C182.139 298.728 181.335 298.523 180.713 298.893C180.091 299.262 179.887 300.066 180.256 300.688L182.508 299.35ZM183.146 305.267C183.548 305.868 184.361 306.029 184.963 305.627C185.564 305.224 185.725 304.411 185.323 303.81L183.146 305.267ZM190.392 310.718C189.94 310.154 189.115 310.063 188.551 310.516C187.987 310.969 187.896 311.794 188.349 312.358L190.392 310.718ZM191.849 316.488C192.332 317.027 193.16 317.073 193.699 316.591C194.238 316.109 194.285 315.281 193.802 314.741L191.849 316.488ZM199.785 320.876C199.258 320.38 198.429 320.405 197.933 320.933C197.438 321.46 197.463 322.289 197.99 322.784L199.785 320.876ZM202.031 326.387C202.584 326.854 203.41 326.784 203.877 326.231C204.344 325.679 204.275 324.852 203.722 324.385L202.031 326.387ZM210.501 329.626C209.91 329.209 209.092 329.35 208.675 329.941C208.258 330.532 208.398 331.349 208.989 331.767L210.501 329.626ZM182.975 198.053C183.452 197.269 183.938 196.491 184.436 195.721L182.235 194.3C181.724 195.09 181.224 195.889 180.735 196.694L182.975 198.053ZM189.62 188.437C190.751 186.991 191.922 185.578 193.13 184.198L191.16 182.472C189.919 183.888 188.718 185.339 187.557 186.823L189.62 188.437ZM199.319 177.746C200.647 176.481 202.011 175.252 203.408 174.062L201.709 172.068C200.275 173.289 198.875 174.55 197.512 175.849L199.319 177.746ZM210.468 168.577C211.965 167.519 213.492 166.502 215.049 165.527L213.658 163.307C212.061 164.307 210.493 165.352 208.956 166.437L210.468 168.577ZM222.833 161.132C224.467 160.305 226.126 159.522 227.81 158.785L226.76 156.385C225.031 157.142 223.327 157.945 221.65 158.794L222.833 161.132ZM236.155 155.58C237.891 155.003 239.647 154.473 241.424 153.991L240.739 151.462C238.914 151.957 237.11 152.501 235.329 153.094L236.155 155.58ZM250.149 152.049C251.947 151.734 253.762 151.468 255.593 151.252L255.286 148.65C253.407 148.872 251.543 149.145 249.697 149.468L250.149 152.049ZM264.511 150.606C265.426 150.58 266.344 150.568 267.265 150.568V147.948C266.32 147.948 265.378 147.961 264.44 147.987L264.511 150.606ZM267.265 150.568C268.173 150.568 269.078 150.58 269.98 150.604L270.051 147.985C269.126 147.96 268.197 147.948 267.265 147.948V150.568ZM278.767 151.232C280.572 151.442 282.362 151.7 284.135 152.006L284.581 149.424C282.76 149.11 280.922 148.845 279.069 148.629L278.767 151.232ZM292.738 153.892C294.491 154.36 296.224 154.875 297.937 155.435L298.752 152.945C296.993 152.37 295.213 151.841 293.413 151.361L292.738 153.892ZM306.176 158.549C307.84 159.265 309.48 160.026 311.096 160.83L312.263 158.484C310.604 157.659 308.92 156.878 307.211 156.143L306.176 158.549ZM318.798 165.103C320.34 166.051 321.854 167.041 323.338 168.07L324.831 165.917C323.308 164.86 321.754 163.845 320.171 162.872L318.798 165.103ZM330.347 173.408C331.736 174.566 333.092 175.762 334.414 176.995L336.2 175.078C334.843 173.813 333.451 172.585 332.025 171.396L330.347 173.408ZM340.587 183.281C341.794 184.626 342.965 186.004 344.098 187.413L346.141 185.772C344.977 184.325 343.775 182.911 342.536 181.531L340.587 183.281ZM349.307 194.519C350.308 196.022 351.269 197.553 352.189 199.112L354.445 197.781C353.501 196.181 352.515 194.608 351.487 193.066L349.307 194.519ZM356.32 206.893C356.707 207.709 357.083 208.531 357.449 209.359L359.846 208.301C359.471 207.451 359.084 206.607 358.686 205.769L356.32 206.893ZM317.34 336.987C318.075 336.567 318.804 336.139 319.527 335.702L318.171 333.46C317.467 333.886 316.757 334.303 316.041 334.711L317.34 336.987ZM326.398 331.155C327.77 330.165 329.116 329.141 330.435 328.085L328.797 326.04C327.512 327.069 326.201 328.066 324.865 329.03L326.398 331.155ZM336.652 322.679C337.882 321.519 339.083 320.329 340.253 319.109L338.363 317.295C337.222 318.483 336.053 319.643 334.854 320.773L336.652 322.679ZM345.712 312.938C346.78 311.628 347.815 310.291 348.817 308.928L346.706 307.376C345.729 308.704 344.721 310.007 343.681 311.283L345.712 312.938ZM353.422 302.096C354.308 300.659 355.16 299.197 355.975 297.713L353.678 296.452C352.884 297.898 352.055 299.321 351.192 300.721L353.422 302.096ZM359.643 290.336C360.332 288.795 360.983 287.234 361.596 285.654L359.154 284.707C358.557 286.246 357.922 287.766 357.251 289.266L359.643 290.336ZM364.258 277.857C364.737 276.24 365.176 274.607 365.575 272.957L363.029 272.341C362.64 273.948 362.212 275.539 361.746 277.113L364.258 277.857ZM367.183 264.878C367.444 263.214 367.664 261.537 367.842 259.848L365.237 259.572C365.063 261.218 364.848 262.852 364.594 264.472L367.183 264.878ZM368.377 251.628C368.397 250.785 368.408 249.939 368.408 249.09H365.788C365.788 249.917 365.778 250.742 365.757 251.564L368.377 251.628ZM166.123 249.09C166.123 249.996 166.135 250.899 166.158 251.798L168.778 251.729C168.754 250.853 168.743 249.973 168.743 249.09H166.123ZM166.768 260.573C166.971 262.375 167.222 264.162 167.519 265.934L170.103 265.501C169.814 263.775 169.569 262.034 169.371 260.279L166.768 260.573ZM169.351 274.536C169.805 276.29 170.306 278.025 170.851 279.74L173.348 278.947C172.817 277.276 172.33 275.587 171.887 273.879L169.351 274.536ZM173.878 287.999C174.575 289.669 175.314 291.316 176.096 292.938L178.457 291.801C177.695 290.221 176.975 288.617 176.296 286.991L173.878 287.999ZM180.256 300.688C181.179 302.242 182.143 303.768 183.146 305.267L185.323 303.81C184.346 302.35 183.408 300.863 182.508 299.35L180.256 300.688ZM188.349 312.358C189.48 313.766 190.647 315.143 191.849 316.488L193.802 314.741C192.631 313.431 191.494 312.089 190.392 310.718L188.349 312.358ZM197.99 322.784C199.305 324.02 200.652 325.222 202.031 326.387L203.722 324.385C202.378 323.25 201.066 322.08 199.785 320.876L197.99 322.784ZM208.989 331.767C209.726 332.287 210.47 332.798 211.222 333.299L212.675 331.119C211.943 330.631 211.218 330.133 210.501 329.626L208.989 331.767Z" fill="white"/>
</g>
<rect x="13.5928" y="13.0928" width="481.814" height="481.814" rx="240.907" stroke="white" stroke-width="4" stroke-linecap="round" stroke-linejoin="round" stroke-dasharray="10 14" shape-rendering="crispEdges"/>
</g>
<defs>
<filter id="filter0_d_678_392" x="8.97422" y="11.0928" width="491.052" height="491.052" filterUnits="userSpaceOnUse" color-interpolation-filters="sRGB">
<feFlood flood-opacity="0" result="BackgroundImageFix"/>
<feColorMatrix in="SourceAlpha" type="matrix" values="0 0 0 0 0 0 0 0 0 0 0 0 0 0 0 0 0 0 127 0" result="hardAlpha"/>
<feOffset dy="2.61856"/>
<feGaussianBlur stdDeviation="1.30928"/>
<feComposite in2="hardAlpha" operator="out"/>
<feColorMatrix type="matrix" values="0 0 0 0 0 0 0 0 0 0 0 0 0 0 0 0 0 0 0.25 0"/>
<feBlend mode="normal" in2="BackgroundImageFix" result="effect1_dropShadow_678_392"/>
<feBlend mode="normal" in="SourceGraphic" in2="effect1_dropShadow_678_392" result="shape"/>
</filter>
<filter id="filter1_d_678_392" x="142.192" y="202.283" width="230.513" height="230.468" filterUnits="userSpaceOnUse" color-interpolation-filters="sRGB">
<feFlood flood-opacity="0" result="BackgroundImageFix"/>
<feColorMatrix in="SourceAlpha" type="matrix" values="0 0 0 0 0 0 0 0 0 0 0 0 0 0 0 0 0 0 127 0" result="hardAlpha"/>
<feOffset dy="2.61856"/>
<feGaussianBlur stdDeviation="1.30928"/>
<feComposite in2="hardAlpha" operator="out"/>
<feColorMatrix type="matrix" values="0 0 0 0 0 0 0 0 0 0 0 0 0 0 0 0 0 0 0.25 0"/>
<feBlend mode="normal" in2="BackgroundImageFix" result="effect1_dropShadow_678_392"/>
<feBlend mode="normal" in="SourceGraphic" in2="effect1_dropShadow_678_392" result="shape"/>
</filter>
<filter id="filter2_d_678_392" x="231.587" y="96.8506" width="230.467" height="232.468" filterUnits="userSpaceOnUse" color-interpolation-filters="sRGB">
<feFlood flood-opacity="0" result="BackgroundImageFix"/>
<feColorMatrix in="SourceAlpha" type="matrix" values="0 0 0 0 0 0 0 0 0 0 0 0 0 0 0 0 0 0 127 0" result="hardAlpha"/>
<feOffset dy="2.61856"/>
<feGaussianBlur stdDeviation="1.30928"/>
<feComposite in2="hardAlpha" operator="out"/>
<feColorMatrix type="matrix" values="0 0 0 0 0 0 0 0 0 0 0 0 0 0 0 0 0 0 0.25 0"/>
<feBlend mode="normal" in2="BackgroundImageFix" result="effect1_dropShadow_678_392"/>
<feBlend mode="normal" in="SourceGraphic" in2="effect1_dropShadow_678_392" result="shape"/>
</filter>
<filter id="filter3_d_678_392" x="56.7989" y="73.9746" width="246.799" height="246.799" filterUnits="userSpaceOnUse" color-interpolation-filters="sRGB">
<feFlood flood-opacity="0" result="BackgroundImageFix"/>
<feColorMatrix in="SourceAlpha" type="matrix" values="0 0 0 0 0 0 0 0 0 0 0 0 0 0 0 0 0 0 127 0" result="hardAlpha"/>
<feOffset dy="2.61856"/>
<feGaussianBlur stdDeviation="1.30928"/>
<feComposite in2="hardAlpha" operator="out"/>
<feColorMatrix type="matrix" values="0 0 0 0 0 0 0 0 0 0 0 0 0 0 0 0 0 0 0.25 0"/>
<feBlend mode="normal" in2="BackgroundImageFix" result="effect1_dropShadow_678_392"/>
<feBlend mode="normal" in="SourceGraphic" in2="effect1_dropShadow_678_392" result="shape"/>
</filter>
<filter id="filter4_d_678_392" x="199.348" y="448.864" width="111.035" height="31.0957" filterUnits="userSpaceOnUse" color-interpolation-filters="sRGB">
<feFlood flood-opacity="0" result="BackgroundImageFix"/>
<feColorMatrix in="SourceAlpha" type="matrix" values="0 0 0 0 0 0 0 0 0 0 0 0 0 0 0 0 0 0 127 0" result="hardAlpha"/>
<feOffset dy="4"/>
<feGaussianBlur stdDeviation="2"/>
<feComposite in2="hardAlpha" operator="out"/>
<feColorMatrix type="matrix" values="0 0 0 0 0 0 0 0 0 0 0 0 0 0 0 0 0 0 0.25 0"/>
<feBlend mode="normal" in2="BackgroundImageFix" result="effect1_dropShadow_678_392"/>
<feBlend mode="normal" in="SourceGraphic" in2="effect1_dropShadow_678_392" result="shape"/>
</filter>
<filter id="filter5_d_678_392" x="153.786" y="147.948" width="226.958" height="200.317" filterUnits="userSpaceOnUse" color-interpolation-filters="sRGB">
<feFlood flood-opacity="0" result="BackgroundImageFix"/>
<feColorMatrix in="SourceAlpha" type="matrix" values="0 0 0 0 0 0 0 0 0 0 0 0 0 0 0 0 0 0 127 0" result="hardAlpha"/>
<feOffset dy="4"/>
<feGaussianBlur stdDeviation="2"/>
<feComposite in2="hardAlpha" operator="out"/>
<feColorMatrix type="matrix" values="0 0 0 0 0 0 0 0 0 0 0 0 0 0 0 0 0 0 0.25 0"/>
<feBlend mode="normal" in2="BackgroundImageFix" result="effect1_dropShadow_678_392"/>
<feBlend mode="normal" in="SourceGraphic" in2="effect1_dropShadow_678_392" result="shape"/>
</filter>
</defs>
</svg>
