<svg width="61" height="61" viewBox="0 0 61 61" fill="none" xmlns="http://www.w3.org/2000/svg">
<path fill-rule="evenodd" clip-rule="evenodd" d="M47.0458 23.2554C45.6479 15.2448 38.7829 9.33922 30.6534 9.15388C22.5238 8.96866 15.3968 14.5552 13.6354 22.4938C12.5409 27.4269 13.7075 32.4137 16.5359 36.2681C16.8627 36.7134 16.8061 37.3422 16.3807 37.6945L16.2826 37.7758C15.8572 38.1281 15.2245 38.0703 14.8949 37.6271C11.6614 33.2799 10.3175 27.6262 11.5585 22.033C13.54 13.1029 21.557 6.81857 30.7018 7.02701C39.8467 7.23557 47.5691 13.8786 49.1415 22.8897C50.0735 28.2302 48.6908 33.5196 45.6349 37.6272C45.3053 38.0703 44.6726 38.1281 44.2473 37.7758L44.1491 37.6945C43.7238 37.3422 43.6672 36.7134 43.994 36.2682C46.6661 32.6275 47.8673 27.9637 47.0458 23.2554ZM30.5433 14.6795C36.3654 14.8122 41.282 19.0417 42.283 24.7786C42.8543 28.0519 42.0603 31.2951 40.2626 33.8674C39.9462 34.3201 40.0017 34.9484 40.427 35.3007L40.5251 35.382C40.9505 35.7342 41.584 35.6769 41.9058 35.2281C44.0863 32.1871 45.0603 28.3183 44.3787 24.413C43.2031 17.6755 37.4292 12.7085 30.5917 12.5527C23.7541 12.3968 17.76 17.0954 16.2785 23.7724C15.3698 27.8675 16.3146 32.0061 18.6242 35.228C18.9459 35.6768 19.5795 35.7342 20.0049 35.3819L20.103 35.3007C20.5283 34.9484 20.5838 34.3201 20.2675 33.8674C18.3619 31.14 17.5933 27.6684 18.3554 24.2332C19.6169 18.5477 24.721 14.5467 30.5433 14.6795ZM30.4354 19.7791C33.9901 19.8601 36.9917 22.4423 37.6028 25.9449C37.9279 27.8077 37.529 29.6547 36.584 31.1691C36.2916 31.6377 36.3443 32.2652 36.7696 32.6175L36.8677 32.6987C37.293 33.051 37.9283 32.9943 38.2344 32.5346C39.5583 30.5465 40.134 28.074 39.6987 25.5792C38.9128 21.0762 35.0539 17.7563 30.484 17.6523C25.914 17.548 21.9077 20.6885 20.9176 25.1511C20.3357 27.774 20.8914 30.4233 22.2968 32.5345C22.6028 32.9942 23.2381 33.0509 23.6635 32.6987L23.7615 32.6174C24.1869 32.2652 24.2396 31.6376 23.9473 31.169C22.9421 29.5575 22.559 27.5748 22.9945 25.6119C23.7646 22.1408 26.8808 19.698 30.4354 19.7791ZM29.4294 27.1014C29.4294 26.514 29.9056 26.0377 30.4931 26.0377C31.0805 26.0377 31.5567 26.514 31.5567 27.1014V37.263C31.5567 37.7084 31.8513 38.1001 32.2792 38.2237L40.7632 40.6746C41.6125 40.9223 42.1212 41.7901 41.923 42.6524L41.7368 43.4565L40.2835 51.4562C40.1848 51.9996 40.5453 52.5201 41.0887 52.6188L41.214 52.6416C41.7574 52.7403 42.2779 52.3798 42.3766 51.8364L43.8209 43.887L43.9962 43.1295C44.4477 41.1678 43.29 39.1946 41.3572 38.6317L33.6841 36.4151V27.1014C33.6841 25.339 32.2555 23.9103 30.4931 23.9103C28.7306 23.9103 27.302 25.339 27.302 27.1014V40.6334C25.9197 39.1935 24.3239 38.499 22.9204 38.5018C21.8405 38.5042 20.7318 38.9512 20.216 40.0082C19.7035 41.0582 19.9797 42.2957 20.732 43.444L26.6919 52.3879C26.9981 52.8475 27.619 52.9718 28.0786 52.6656L28.1846 52.595C28.6442 52.2887 28.7685 51.6678 28.4622 51.2082L22.5094 42.275C21.9716 41.4524 22.0773 41.0448 22.1277 40.9413C22.175 40.8446 22.3631 40.6305 22.925 40.6293C23.9325 40.6272 25.7062 41.4155 27.0367 43.8702C27.2615 44.2851 27.7244 44.5266 28.1859 44.4282L28.6378 44.3319C29.0994 44.2335 29.4294 43.8258 29.4294 43.3539V27.1014Z" fill="#045DE9"/>
<path fill-rule="evenodd" clip-rule="evenodd" d="M47.0458 23.2554C45.6479 15.2448 38.7829 9.33922 30.6534 9.15388C22.5238 8.96866 15.3968 14.5552 13.6354 22.4938C12.5409 27.4269 13.7075 32.4137 16.5359 36.2681C16.8627 36.7134 16.8061 37.3422 16.3807 37.6945L16.2826 37.7758C15.8572 38.1281 15.2245 38.0703 14.8949 37.6271C11.6614 33.2799 10.3175 27.6262 11.5585 22.033C13.54 13.1029 21.557 6.81857 30.7018 7.02701C39.8467 7.23557 47.5691 13.8786 49.1415 22.8897C50.0735 28.2302 48.6908 33.5196 45.6349 37.6272C45.3053 38.0703 44.6726 38.1281 44.2473 37.7758L44.1491 37.6945C43.7238 37.3422 43.6672 36.7134 43.994 36.2682C46.6661 32.6275 47.8673 27.9637 47.0458 23.2554ZM30.5433 14.6795C36.3654 14.8122 41.282 19.0417 42.283 24.7786C42.8543 28.0519 42.0603 31.2951 40.2626 33.8674C39.9462 34.3201 40.0017 34.9484 40.427 35.3007L40.5251 35.382C40.9505 35.7342 41.584 35.6769 41.9058 35.2281C44.0863 32.1871 45.0603 28.3183 44.3787 24.413C43.2031 17.6755 37.4292 12.7085 30.5917 12.5527C23.7541 12.3968 17.76 17.0954 16.2785 23.7724C15.3698 27.8675 16.3146 32.0061 18.6242 35.228C18.9459 35.6768 19.5795 35.7342 20.0049 35.3819L20.103 35.3007C20.5283 34.9484 20.5838 34.3201 20.2675 33.8674C18.3619 31.14 17.5933 27.6684 18.3554 24.2332C19.6169 18.5477 24.721 14.5467 30.5433 14.6795ZM30.4354 19.7791C33.9901 19.8601 36.9917 22.4423 37.6028 25.9449C37.9279 27.8077 37.529 29.6547 36.584 31.1691C36.2916 31.6377 36.3443 32.2652 36.7696 32.6175L36.8677 32.6987C37.293 33.051 37.9283 32.9943 38.2344 32.5346C39.5583 30.5465 40.134 28.074 39.6987 25.5792C38.9128 21.0762 35.0539 17.7563 30.484 17.6523C25.914 17.548 21.9077 20.6885 20.9176 25.1511C20.3357 27.774 20.8914 30.4233 22.2968 32.5345C22.6028 32.9942 23.2381 33.0509 23.6635 32.6987L23.7615 32.6174C24.1869 32.2652 24.2396 31.6376 23.9473 31.169C22.9421 29.5575 22.559 27.5748 22.9945 25.6119C23.7646 22.1408 26.8808 19.698 30.4354 19.7791ZM29.4294 27.1014C29.4294 26.514 29.9056 26.0377 30.4931 26.0377C31.0805 26.0377 31.5567 26.514 31.5567 27.1014V37.263C31.5567 37.7084 31.8513 38.1001 32.2792 38.2237L40.7632 40.6746C41.6125 40.9223 42.1212 41.7901 41.923 42.6524L41.7368 43.4565L40.2835 51.4562C40.1848 51.9996 40.5453 52.5201 41.0887 52.6188L41.214 52.6416C41.7574 52.7403 42.2779 52.3798 42.3766 51.8364L43.8209 43.887L43.9962 43.1295C44.4477 41.1678 43.29 39.1946 41.3572 38.6317L33.6841 36.4151V27.1014C33.6841 25.339 32.2555 23.9103 30.4931 23.9103C28.7306 23.9103 27.302 25.339 27.302 27.1014V40.6334C25.9197 39.1935 24.3239 38.499 22.9204 38.5018C21.8405 38.5042 20.7318 38.9512 20.216 40.0082C19.7035 41.0582 19.9797 42.2957 20.732 43.444L26.6919 52.3879C26.9981 52.8475 27.619 52.9718 28.0786 52.6656L28.1846 52.595C28.6442 52.2887 28.7685 51.6678 28.4622 51.2082L22.5094 42.275C21.9716 41.4524 22.0773 41.0448 22.1277 40.9413C22.175 40.8446 22.3631 40.6305 22.925 40.6293C23.9325 40.6272 25.7062 41.4155 27.0367 43.8702C27.2615 44.2851 27.7244 44.5266 28.1859 44.4282L28.6378 44.3319C29.0994 44.2335 29.4294 43.8258 29.4294 43.3539V27.1014Z" fill="url(#paint0_linear_1020_349)"/>
<defs>
<linearGradient id="paint0_linear_1020_349" x1="19.2765" y1="51.9293" x2="52.5823" y2="45.638" gradientUnits="userSpaceOnUse">
<stop stop-color="#045DE9"/>
<stop offset="1" stop-color="#09C6F9" stop-opacity="0.74"/>
</linearGradient>
</defs>
</svg>
